/* XPM */
static char *result[] = {
/* columns rows colors chars-per-pixel */
"64 64 32 1 ",
"  c #041535",
". c #081B36",
"X c #06173A",
"o c #091639",
"O c #061C3B",
"+ c #0A1D3D",
"@ c #06223E",
"# c #0A223E",
"$ c #0D283F",
"% c #061D41",
"& c #0B1E42",
"* c #062241",
"= c #0A2543",
"- c #052842",
"; c #0D2B45",
": c #0D2C49",
"> c #102444",
", c #112C46",
"< c #132748",
"1 c #122E49",
"2 c #F4E7CA",
"3 c #F5E9CE",
"4 c #F8E9CF",
"5 c #F3E7D6",
"6 c #F6EAD3",
"7 c #FDECD6",
"8 c #F6ECD9",
"9 c #FCEED9",
"0 c #FCF1D6",
"q c #F7F1D9",
"w c #FDF2DB",
"e c #FEF4E1",
/* pixels */
"77777779q9w9998w99998w999999999999999w99w9999999w899999899777777",
"77777q7*;====:====:=:==-=:===-=::==-==:====::==-=:==;==:*7797777",
"771:;;;=;;;;;;::;;;;:;;;;;::;;;;:;;;;;::;;;;;;;;;;::;;;;;:;;;:87",
"77;;;;;;;;;;;;;;;;;;;;;;;;;:;;;;;;;;;;;;;;;;;;;;;;;:;;;;;;;;;:77",
"77;;;;;;;;;;;;;;;;;;;;;;;;;;;;;;;;;;;;;;;;;;;;;;;;;;;;;;;;;;;:60",
"77:;;;;;;;;;;;;;;;;;;;;;;;;;;;;;;;;;;;;;;;;;;;;;;;;;;;;;;;;;;:77",
"78;;;;;;;;;;;;;;;;;;;;;;;;;;;;;;;;:;;;;;;;;;;;;;;;;;;;;;;;;;;;77",
"77;;;;;;;;;;;;;;;;;;;;;:--------------;;;;,;;;;;;;;;;;;;;;;;;-77",
"77;;;;;;;;;;;;;;;;;;;==977777777777778&>:;;;;;;;;;;;;;;;;;;;;;q7",
"77:;;,;;;;;;;;;;;:;;;9977777777777777779%;;;;;;;;;;;;;;;;;;;;;77",
"77;;;;;;;;;;;;;;:=<57777777777777777777774#;=,;;;;;;;;;;;;;;;;77",
"77;;;;;;;;;;;;;=>9e7777777777777777797777799O=:;;;;;;;;;;;;;;;47",
"78;;;;;;;;;;;;<7777777777777977777777777777776+;;;;;;;;;;;;;;:q0",
"77;;;;;;;;;;;+777777777777777777777777777777799=;;;;;;;;;;;;;;77",
"77;;;;;;;;;;:77777777777777777777777777777777798$;;;;;;;;;;;;;47",
"7q;;;;;;;;;*777777777777777777777777777777777777q;;;;;;;;;;;;;77",
"98:;;;;;;;;*77977777777777777777777777777777777777-;;;;;;;;;;167",
"7#;;;;;;;;;0777777777777777777777777777777777777770#;;,;;;;;;;&7",
"q=;;;;;;;;;77777777777777777777777777777777777797777=;;;;;;;;;=7",
"7;;;;;;;;;#977777777779779999999977797777777797777779=;;;;;;;;-7",
"9;;;;;;;;=7777777777777761=;:;:-167777799777777777779;;;;;;;;;=7",
"9=;;;;;;;,67777777777779*77*8X7&9O9777777777797777779;;;;;;;;;=7",
"9=;;;;;;,=577779777777777979#8<8,6&797777777777777779;;;;;;;;;$7",
"q=;;;;;;=>7797777777977777770 woq+wXw9777777777777779;;;;;;;;;-7",
"9=;;;;;;;;47777797777777777779:5<6#7%6777777777777779,;;;;;;;;=7",
"9=;;;;;;;;477977777777977777796+q*w*=77777779907777774;;;;;;;;=7",
"9=;;;;;;;>4777777777777777777779$6+7@7777777&===777774;;;;;;;;$7",
"9;;;;;;;;=777777797777777777777&q=wO$777777-;;;;=777X4;;;;;;;;-7",
"9-;;;;;;;;4777777777779777777779&8X7@67777%;;;;;=77=&6;;;;;;;;=7",
"9=;;;;;;;;477779777797777777777oqOw%q77777=;;;;;:67;&6$;;;;;;;=7",
"9=:;;;;;;=4777777977777777777798=4+;777777*;;;;;*77:&6;;;;;;;;=7",
"9=;;;;;;;;477777777777777779779>8$=7777779=;;;:;777=+4;;;;;;;;$q",
"9=;;;;;;;;77777777777777777777>8>6&777779*;;;;;;7779X4;;;;;;;;$7",
"7=;;;;;;;;=w77777777777O77797*4$6;7777779;;;;;;;9776.8;;;;;;;;$7",
"q=;;;;;;;;=977777779777qOX97&w*$#$977777w;,;;;,$9777w+;;;;;;;;-7",
"9=;;;;;;;;;&7777777777777w%===;3=-7777770=;;;;*977777;;;;;;;=;=7",
"w=;;,;;;;;;*8777777977777777798$,777777779=,;:#77776+;;;;;;;;;=7",
"9=;;;;;;;;;;19777777977#:;:=1,;8=77777777766&=9w777:;;;;;;;;;;$q",
"q=;;;;;;;;;;>8777799=7=0;q:q=q8=,67777777777797777X7-;;;;;;;;;=7",
"9=;;;;;;;;;;1=77977+3#5+5=6=;::6#,7777777767777777@6@;;;;;;;;;=7",
"w=;;;;;;;;;;;;=w+e&9&wOe&w+q#*qXw**O99w9oXXOX%977@=6$;;;;;;;;;$7",
"9=;;;,;;;;;;;;;=6+6=3&5&2%6%6#:3=6*4=;;=97677777w=;4-;;;;;;;;;=7",
"9=;;;;;;;;,;;;;;*w=9&w&w&9*9*#7Xq*w&979977777777O;#8@;;;;;;;;;=7",
"q=;;;;;;;;;;;;;;;,:*6*6&6=8,,#97>6+76777777777779;7;;;;;;;;;;;-7",
"9=;;;;;;;;;;;;;;;;;;=;-e;0%;;;=77=w=%**799777977707;;;;;;;;;;;$7",
"q=;;;;;;;;;;;;;;;;;;;;;;;;;;;;16779=8681;1=677777:;;;;;;;;;;;;-7",
"7&;;;;;;;;;;;;;;;;;;;;;;;Oq&*=;.779O977=w9w*X+w9w;;;;;;;;;;;;,+7",
"78,;;;;;;;;;;;;;;;;;;;;;16966;;=9777=11;779=q;;;;;;;;;;;;;;;;149",
"77;;;;;;;;;;;;;;;;;;;;;;;O7-;;;=w777;776%%@=w1w;q;;;;;;;;;;;;;77",
"77;;;;;;;;;;;;;;;;;;;;;;;$9==1;;,777#477X79;;;w:9:;;;;;;;;;;;:77",
"78;;;;;;;;;;;;;;;;;;;;;;;w799e=;,6777-@*-99;w:*;O;;;;;;;;;;,;;67",
"79;;;;;;;;;;;;;;;;;;;;;;;*77:=;;,7777667+-;;q:w17;;;;;;;;;;;;;77",
"77:;;;;;;;;;;;;;;;;;;;;;;*77O*&&#797777799w*O*w,w;;;;;;;;;;;;;q7",
"77;;;;;;;;;;;;;;;;;,;;;;1,w7763441@76777777977=:;;;;;;;;;;;;;;67",
"77;;;;;;;;;;;;;;;;;;;;;;17979=;;;7#=,*w797777786q;;;;;;;;;;;;-77",
"77;;;;;;;;;;;;;;;;;;;;;;;====,;;;;;;;;;=+77777977;;;;;;;;;;;;;77",
"77;;;;;;;;;;;;;;;;;;;;;;;;;;;;;;;;;;;;;;;==$w7777;;;;;;;;;;;;;q0",
"7q;;;;;;;;;;;;;;;;;;;;;;;;;;;;;;;;;;;;;;;;;;=;;:=;;;;;;;;;;;;;77",
"77;;;;;;;;;;;;;;;;;;;;;;;;;;;;;;;;;;;;;;;;;;;;;;;;;;;;;;;;;;;;77",
"77;;;;;;;;;;;;;;;;;;;;;;;;;;;;;;;;;;;;;;;;;;;;;;;;;;;;;;;;;;;;47",
"77;;;;;;;;;;;1;;;;;;;;;;;;;;;;;;;;;;;;;;;;;;;;;;;;;;;;;;;;;;;:q7",
"79::;;:;;;;;;;;;;;;;;;;;;;;;;;;;;;;;;;;;;;;;;;;;;;;;;;;;;;;;;177",
"7996766*=$-==-$$-==-=$===-=$-$=$==-=$======-=$-=$==$-=$=@q477707",
"7777777q7777777777777777777777777q7777707777777777q77777q7777777"
};
