/* XPM */
static char *_0cd7154871143fdae3509fa90950305aNn8Sq6neghmSmIR[] = {
/* columns rows colors chars-per-pixel */
"64 64 178 2 ",
"   c #3B2F2F",
".  c #2F3B2D",
"X  c #37352D",
"o  c #2F3436",
"O  c #2C3B3C",
"+  c #353535",
"@  c #393535",
"#  c #353C34",
"$  c #3B3934",
"%  c #3A343A",
"&  c #34393C",
"*  c #3A3A3B",
"=  c #4A3726",
"-  c #413A2C",
";  c #503325",
":  c #423736",
">  c #47443D",
",  c #4B413C",
"<  c #534A3B",
"1  c #7F5E35",
"2  c #2B3841",
"3  c #373444",
"4  c #333944",
"5  c #393B43",
"6  c #493F48",
"7  c #3E4649",
"8  c #454545",
"9  c #4B4641",
"0  c #464944",
"q  c #4A4A44",
"w  c #444649",
"e  c #4A4649",
"r  c #444A4B",
"t  c #4B4B4B",
"y  c #514644",
"u  c #524C46",
"i  c #544D4C",
"p  c #475149",
"a  c #4E514D",
"s  c #444953",
"d  c #4B4C54",
"f  c #504B51",
"g  c #545353",
"h  c #585654",
"j  c #575A53",
"k  c #58555A",
"l  c #5A5A5A",
"z  c #645E5B",
"x  c #616557",
"c  c #66625B",
"v  c #645D69",
"b  c #5C6767",
"n  c #656563",
"m  c #696A65",
"M  c #656769",
"N  c #767675",
"B  c #767B75",
"V  c #7B7B7B",
"C  c #865723",
"Z  c #84592F",
"A  c #895935",
"S  c #995A31",
"D  c #9D5E3D",
"F  c #98613A",
"G  c #A36236",
"H  c #B06C3D",
"J  c #B6743F",
"K  c #BC743E",
"L  c #835F47",
"P  c #975C43",
"I  c #B36E44",
"U  c #AB7046",
"Y  c #AE724A",
"T  c #B37545",
"R  c #BB7443",
"E  c #BC7C46",
"W  c #BA7A4C",
"Q  c #B86E55",
"!  c #BB7854",
"~  c #847B6C",
"^  c #857D79",
"/  c #C57847",
"(  c #C37B53",
")  c #81807E",
"_  c #E78B4E",
"`  c #ED8D4C",
"'  c #E78651",
"]  c #E38C54",
"[  c #EC8C55",
"{  c #E48E5A",
"}  c #EB8B5A",
"|  c #F98A52",
" . c #E8915C",
".. c #FE9A57",
"X. c #F59D5E",
"o. c #FD9B5D",
"O. c #FAA05C",
"+. c #EC9C68",
"@. c #FF9760",
"#. c #F69A66",
"$. c #FC9B64",
"%. c #FB9D69",
"&. c #F6A363",
"*. c #FEA163",
"=. c #FEAF76",
"-. c #FDAD7C",
";. c #FFB076",
":. c #FBB07C",
">. c #737B83",
",. c #787B80",
"<. c #817D81",
"1. c #7B8388",
"2. c #818181",
"3. c #A69E9B",
"4. c #9BA09A",
"5. c #A3A29E",
"6. c #A5A6A6",
"7. c #A9A6A5",
"8. c #AAA9A5",
"9. c #A7A6AB",
"0. c #AAA7AD",
"q. c #A4A9AA",
"w. c #AAAAAA",
"e. c #B2A9AA",
"r. c #ADADB1",
"t. c #B2B2B2",
"y. c #BEBEBE",
"u. c #FBAF82",
"i. c #F9AF88",
"p. c #F6B283",
"a. c #FCB283",
"s. c #FDB58B",
"d. c #FFB88C",
"f. c #F7B791",
"g. c #FEB692",
"h. c #FDBB94",
"j. c #FFB69A",
"k. c #F5BC9C",
"l. c #FCBB9C",
"z. c #F4BFA0",
"x. c #FEBCA1",
"c. c #F5C19C",
"v. c #FBC098",
"b. c #FBC3A5",
"n. c #FAC9A7",
"m. c #FAC7AA",
"M. c #F6CCAC",
"N. c #FCCCAD",
"B. c #FDD1AC",
"V. c #F6CEB2",
"C. c #FCCCB2",
"Z. c #F2CBB9",
"A. c #F8CFBD",
"S. c #F3D1B5",
"D. c #FFD2B2",
"F. c #C4BFC3",
"G. c #C1C1C2",
"H. c #CDCDCD",
"J. c #DBD8CF",
"K. c #D3D3D3",
"L. c #D5D8DA",
"P. c #DCDCDC",
"I. c #E0DCD1",
"U. c #E4DDDC",
"Y. c #E0DFE5",
"T. c #DBE2E4",
"R. c #E2E2E2",
"E. c #FFF6ED",
"W. c gray96",
"Q. c #F6F6F6",
"!. c #FBF7F5",
"~. c #F5FEFE",
"^. c gray98",
"/. c #FEFEFA",
"(. c #FFFAFD",
"). c #F9FFFF",
"_. c gray99",
"`. c white",
/* pixels */
"`.`.`.`.`.`.`.`.`.`.`.`.`.`.`.`.`.`.`.`.`.`.`.`.`.`.`.`.`.`.`.`.`.`.`.`.`.`.`.`.`.`.`.`.`.`.`.`.`.`.`.`.`.`.`.`.`.`.`.`.`.`.`.`.",
"`.`.`.`.`.`.`.`.`.`.`.`.`.`.`.`.`.`.`.`.`.`.`.`.`.`.`.`.`.`.`.`.`.`.`.`.`.`.`.`.`.`.`.`.`.`.`.`.`.`.`.`.`.`.`.`.`.`.`.`.`.`.`.`.",
"`.`.`.`.`.`.`.`.`.`.`.`.`.`.`.`.`.`.`.`.`.`.`.`.`.`.`.`.`.`.`.`.`.`.`.`.`.`.`.`.`.`.`.`.`.`.`.`.`.`.`.`.`.`.`.`.`.`.`.`.`.`.`.`.",
"`.`.`.`.`.`.`.`.`.`.`.`.`.`.`.`.`.`.`.`.`.`.`.`.`.`.`.`.`.`.`.`.`.`.`.`.`.`.`.`.`.`.`.`.`.`.`.`.`.`.`.`.`.`.`.`.`.`.`.`.`.`.`.`.",
"`.`.`.`.`.`.`.`.`.`.`.`.`.`.`.`.`.`.`.`.`.`.`.`.`.`.`.`.`.`.`.`.`.`.`.`.`.`.`.`.`.`.`.`.`.`.`.`.`.`.`.`.`.`.`.`.`.`.`.`.`.`.`.`.",
"`.`.`.`.`.`.`.`.`.`.`.`.`.`.`.`.`.`.`.`.`.`.`.`.`.`.`.`.`.`.`.`.`.`.`.`.`.`.`.`.`.`.`.`.`.`.`.`.`.`.`.`.`.`.`.`.`.`.`.`.`.`.`.`.",
"`.`.`.`.`.`.`.`.`.`.`.`.`.`.`.`.`.`.`.`.`.`.`.`.`.`.`.`.`.`.`.`.`.`.`.`.`.`.`.`.`.`.`.`.`.`.`.`.`.`.`.`.`.`.`.`.`.`.`.`.`.`.`.`.",
"`.`.`.`.`.`.`.`.`.`.`.`.`.`.`.`.`.`.`.`.`.`.`.`.`.`.`.`.`.`.`.`.`.`.`.`.`.`.`.`.`.`.`.`.`.`.`.`.`.`.`.`.`.`.`.`.`.`.`.`.`.`.`.`.",
"`.`.`.`.`.`.`.`.`.`.`.`.`.`.`.`.`.`.`.`.`.`.`.`.`.`.`.`.`.`.`.`.`.`.`.`.`.`.`.`.`.`.`.`.`.`.`.`.`.`.`.`.`.`.`.`.`.`.`.`.`.`.`.`.",
"`.`.`.`.`.`.`.`.`.`.`.`.`.`.`.`.`.`.`.`.`.`.`.`.`.`.`.`.`.`.`.`.`.`.`.`.`.`.`.`.`.`.`.`.`.`.`.`.`.`.`.`.`.`.`.`.`.`.`.`.`.`.`.`.",
"`.`.`.`.`.`.`.`.`.`.`.`.`.`.`.`.`.`.`.`.`.`.`.`.`.`.`.`.`.`.`.`.`.`.`.`.`.`.`.`.`.`.`.`.`.`.`.`.`.`.`.`.`.`.`.`.`.`.`.`.`.`.`.`.",
"`.`.`.`.`.`.`.`.`.`.`.`.`.`.`.`.`.`.`.`.`.`.`.`.`.`.`.`.`.`.`.`.`.`.`.`.`.`.`.`.`.`.`.`.`.`.`.`.`.`.`.`.`.`.`.`.`.`.`.`.`.`.`.`.",
"`.`.`.`.`.`.`.`.`.`.`.`.`.`.`.`.`.`.`.`.`.`.`.`.`.`.`.`.`.`.`.`.`.`.`.`.`.`.`.`.`.`.`.`.`.`.`.`.`.`.`.`.`.`.`.`.`.`.`.`.`.`.`.`.",
"`.`.`.`.`.`.`.`.`.`.`.`.`.`.`.`.`.`.`.`.`.`.`.`.`.`.`.`.`.`.`.`.`.`.`.`.`.`.`.`.`.`.`.`.`.`.`.`.`.`.`.`.`.`.`.`.`.`.`.`.`.`.`.`.",
"`.`.`.`.`.`.`.`.`.`.`.`.`.`.`.`.`.`.`.`.`.`.`.`.`.`.`.`.`.`.`.`.`.`.`.`.`.`.`.`.`.`.`.`.`.`.`.`.`.`.`.`.`.`.`.`.`.`.`.`.`.`.`.`.",
"`.`.`.`.`.`.`.`.`.`.`.`.`.`.`.`.`.`.`.`.`.`.`.`.`.`.`.`.`.`.`.`.`.`.`.`.`.`.`.`.`.`.`.`.`.`.`.`.`.`.`.`.`.`.`.`.`.`.`.`.`.`.`.`.",
"`.`.`.`.`.`.`.`.`.`.`.`.`.`.`.`.`.`.`.`.`.`.`.`.`.`.`.`.`.`.`.`.`.`.`.`.`.`.`.`.`.`.`.`.`.`.`.`.`.`.`.`.`.`.`.`.`.`.`.`.`.`.`.`.",
"`.`.`.`.`.`.`.`.`.`.`.^.`.`.`.`.`.^.`.`.`.`.`.`.`.`.`.`.`.`.`.`.`.`.`.`.`.`.`.`.`.`.`.`.`.`.`.`.`.`.`.`.`.`.`.`.`.`.`.`.`.`.`.`.",
"`.`.`.`.`.`.`.`.`.`.`.^.`.`.`.`.`.`.`.`.`.`.`.`.`.`.`.`.`.`.`.`.`.`.`.`.`.`.`.`.`.`.`.`.`.`.`.`.`.`.`.`.`.`.`.`.`.`.`.`.`.`.`.`.",
"`.`.`.`.`.`.`.`.`.^.`.`.^.`.`.6.w.6.`.`.`.`.`.`.`.`.`.`.`.`.`.`.`.`.`.`.`.`.`.`.`.`.`.`.`.`.`.`.`.`.`.`.`.`.`.`.`.`.`.`.`.`.`.`.",
"`.`.`.`.`.`.`.`.`.`.`.`.`.^.`.6.w.w.^.Q.`.`.`.`.`.`.`.`.`.`.`.`.`.`.`.`.`.`.`.`.`.`.`.`.`.`.`.`.`.`.`.`.`.`.`.`.`.`.`.`.`.`.`.`.",
"`.`.`.`.`.`.`.`.`.`.`.`.`.`.`.w.6.w.`.`.`.`.`.`.`.`.`.`.`.`.`.`.`.`.`.`.`.`.`.`.`.`.`.`.`.`.`.`.`.`.`.`.`.`.`.`.`.`.`.`.`.`.`.`.",
"`.`.`.`.`.`.`.`.`.`.`.`.`.`.`.^.`.^.g g g `.`.^.`.`.`.`.`.`.`.`.`.`.`.`.`.`.`.`.`.`.`.`.`.`.`.`.`.`.`.`.`.`.`.`.`.`.`.`.`.`.`.`.",
"`.`.`.`.`.`.`.`.`.`.`.`.`.`.`.`.`.`.g g g `.`.`.`.`.`.`.`.`.`.`.`.`.`.`.`.`.`.`.`.`.`.`.`.`.`.`.`.`.`.`.`.`.`.`.`.`.`.`.`.`.`.`.",
"`.`.`.`.`.`.`.`.`.`.`.`.`.`.`.`.^.`.g g g `.`.`.`.`.`.^.`.`.`.`.`.`.`.`.`.`.`.`.`.`.`.`.`.`.`.`.`.`.`.`.`.`.`.`.`.`.`.`.`.`.`.`.",
"`.`.`.`.`.`.`.`.`.`.`.`.`.`.`.`.^.^.w.w.6.g g g ^.`.`.`.`.`.`.`.`.`.`.`.`.`.`.`.`.`.`.`.`.`.`.`.`.`.`.`.`.`.`.`.`.`.`.`.`.`.`.`.",
"`.`.`.`.`.`.`.`.`.`.`.`.`.`.`.`.^.`.6.w.w.g g g `.`.`.`.`.`.`.^.`.`.`.`.`.`.`.`.`.`.`.`.`.`.`.`.`.`.`.`.`.`.`.`.`.`.`.`.`.`.`.`.",
"`.`.`.`.`.`.`.`.`.`.`.`.`.`.`.`.`.`.w.6.6.g g l `.Q.`.`.^.`.`.`.`.`.`.`.`.`.`.`.`.`.`.`.`.`.`.`.`.`.`.`.`.`.`.`.`.`.`.`.`.`.`.`.",
"`.`.`.`.`.`.`.`.`.`.`.`.`.`.`.`.^.`.w.6.6.w.6.6.t l g `.`.^.`.^.`.`.`.`.`.`.`.`.`.`.`.`.`.`.`.`.`.`.`.`.`.`.`.`.`.`.`.`.`.`.`.`.",
"`.`.`.`.`.`.`.`.`.`.`.`.`.`.`.`.`.`.w.w.w.6.w.6.g g g `.`.`.`.`.`.`.`.`.`.`.`.`.`.`.`.`.`.`.`.`.`.`.`.`.`.`.`.`.`.`.`.`.`.`.`.`.",
"`.`.`.`.`.`.`.`.`.`.`.`.`.`.`.`.`.^.6.w.w.6.w.w.g g g `.`.`.`.`.`.`.`.`.`.`.`.`.`.`.`.`.`.`.`.`.`.`.`.`.`.`.`.`.`.`.`.`.`.`.`.`.",
"`.`.`.`.`.`.`.`.`.`.`.`.`.`.`.`.^.`.G.G.G.w.6.w.6.w.w.g g g `.`.`.`.`.`.`.`.`.`.`.`.`.`.`.`.`.`.`.`.`.`.`.`.`.`.`.`.`.`.`.`.`.`.",
"`.`.`.`.`.`.`.`.`.`.`.`.`.`.`.`.`.^.G.G.y.w.w.w.w.6.w.g g g `.`.`.`.`.`.`.`.`.`.`.`.`.`.`.`.`.`.`.`.`.`.`.`.`.`.`.`.`.`.`.`.`.`.",
"`.`.`.`.`.`.`.`.`.`.`.`.`.`.`.^.`.^.G.y.G.w.w.6.6.w.6.g l g `.`.`.`.`.`.`.`.^.`.`.`.`.`.`.`.`.`.`.`.`.`.`.`.`.`.`.`.`.`.`.`.`.`.",
"`.`.`.`.`.`.`.`.`.`.`.`.`.`.`.^.Q.`.P.P.P.w.6.w.6.6.w.w.6.6.g g g ^.`.`.`.`.`.`.`.`.`.`.`.`.`.`.`.`.`.`.`.`.`.`.`.`.`.`.`.`.`.`.",
"`.`.`.`.`.`.`.`.`.`.`.`.`.`.`.`.`.`.P.L.P.6.w.w.w.6.6.w.w.w.l t l `.`.`.Q.`.`.`.`.`.`.`.`.`.`.`.`.`.`.`.`.`.`.`.`.`.`.`.`.`.`.`.",
"`.`.`.`.`.`.`.`.`.`.`.`.`.`.`.Q.`.Q.R.P.R.w.w.6.w.w.w.6.6.6.t g g `.`.^.`.`.`.`.`.`.`.`.`.`.`.`.`.`.`.`.`.`.`.`.`.`.`.`.`.`.`.`.",
"`.`.`.`.`.`.`.`.`.`.`.`.`.`.`.L.H.P.Q.`.`.y.y.G.w.6.6.t.w.6.6.w.w.g l g `.^.`.`.`.`.`.`.`.`.`.`.`.`.`.`.`.`.`.`.`.`.`.`.`.`.`.`.",
"`.`.`.`.`.`.`.`.`.`.`.`.`.`.`.H.H.K.^.^.^.y.G.G.6.t.6.6.6.6.w.6.w.g t g `.`.`.`.`.`.`.`.`.`.`.`.`.`.`.`.`.`.`.`.`.`.`.`.`.`.`.`.",
"`.`.`.`.`.`.`.`.`.^.`.`.`.`.`.K.K.H.`.`.`.G.G.G.w.6.w.w.w.6.6.w.w.t g g `.`.`.`.`.`.`.`.`.`.`.`.`.`.`.`.`.`.`.`.`.`.`.`.`.`.`.`.",
"`.`.`.`.`.`.`.`.`.`.`.`.`.`.`.`.`.`.^.`.^.P.P.P.w.6.6.w.6.6.w.w.w.V V V g g g `.`.`.`.`.`.`.`.`.`.`.`.`.`.`.`.`.`.`.`.`.`.`.`.`.",
"`.`.`.`.`.`.`.`.`.`.`.`.`.`.`.`.`.`.^.`.`.P.P.P.6.6.w.w.w.w.w.6.w.V V V g g l `.`.`.`.`.`.`.`.`.`.`.`.`.`.`.`.`.`.`.`.`.`.`.`.`.",
"`.`.`.`.`.`.`.`.`.`.`.`.`.`.`.`.`.`.`.`.`.P.P.P.w.6.w.6.w.w.w.6.w.N 2.N g g g `.`.`.`.`.`.`.`.`.`.`.`.`.`.`.`.`.`.`.`.`.`.`.`.`.",
"`.`.`.`.`.`.`.`.`.`.`.`.`.`.`.`.`.`.H.H.H.`.`.^.G.y.G.w.w.w.w.w.6.w.6.w.V 2.V g l g `.`.^.^.`.`.`.`.`.`.`.`.`.`.`.`.`.`.`.`.`.`.",
"`.`.`.`.`.`.`.`.`.`.`.`.`.`.`.`.`.`.K.K.K.Q.^.`.G.G.G.6.6.6.6.w.6.w.6.6.V V V g g g `.`.`.`.`.^.`.`.`.`.`.`.`.`.`.`.`.`.`.`.`.`.",
"`.`.`.`.`.`.`.`.`.`.`.`.`.`.`.`.`.`.K.H.H.`.`.^.y.G.G.w.w.w.6.w.w.6.w.w.V V 2.g g g `.`.`.`.`.`.`.`.`.`.`.`.`.`.`.`.`.`.`.`.`.`.",
"`.`.`.`.`.`.`.`.`.`.`.`.`.`.`.`.`.`.`.^.`.^.`.`.P.P.P.G.y.y.w.w.6.w.w.w.6.6.6.V V 2.g g g `.`.`.`.`.`.`.`.`.`.`.`.`.`.`.`.`.`.`.",
"`.`.`.`.`.`.`.`.`.`.`.`.`.`.`.`.`.`.`.`.`.`.^.^.P.P.P.G.G.G.w.6.w.6.6.w.6.w.w.V V V g g g `.`.`.`.`.`.`.`.`.`.`.`.`.`.`.`.`.`.`.",
"`.`.`.`.`.`.`.`.`.`.`.`.`.`.`.`.`.`.`.`.`.^.^.`.P.J.I.F.G.y.7.0.7.w.7.w.7.w.7.V V <.k g k `.`.`.(.`.`.`.`.`.`.`.`.`.`.`.^.`.`.`.",
"`.`.`.`.`.`.`.`.`.`.`.`.`.^.`.`.`.`.`.`.`.`.`.`.~.`.`.L.Y.L.w.q.q.w.q.q.6.6.w.6.w.4.B B B j j a `.`.`.`.`.).).~.`.^.`.`.`.`.`.`.",
"`.`.`.`.`.`.`.`.`.`.`.Q.`.`.`.`.`.`.`.`.`.`.`.`.~.Q.`.L.T.U.3.6.5.7.8.8.8.8.8.8.9.r.V <.V h g i ).~.`.(.(.^.`.`.`.`.`.`.`.`.^.`.",
"`.`.`.`.`.`.`.`.`.`.`.`.`.`.^.`.`.`.`.`.`.`.`.`.`.!.(.T.K.U.e.q.r.9.0.9.9.0.9.9.8.7.N ) ^ g h h `.`.`.`.`.`.`.`.^.`.`.`.^.`.`.`.",
"`.`.`.`.`.`.`.`.`.`.Q.`.^.`.`.`.`.`.`.`.`.`.`.`.1.,.V n x c n b z e t t w t e t 0 0 a 8 t r w 7 , 9 9 q r 8 t r t 0 t 0 t t 0 `.",
"`.`.`.`.`.`.`.`.`.`.`.`.`.`.^.`.`.`.`.`.`.`.`.`.~ V 1.b M v v M m 0 8 t r 0 0 q q i 8 t 0 0 t t s d r r r w e e t 0 8 e 0 8 t `.",
"`.`.`.`.`.`.`.`.`.Q.`.^.`.`.`.`.`.`.`.`.`.`.`.`.^ ,.>.n z m M n c t 8 0 0 t q 9 r 7 r 8 a 0 q > w w t , u g 0 d 0 t 0 t t t t `.",
"`.`.`.`.`.`.`.`.`.`.`.`.`.`.`.g g g t t 0 * + * 4 O = +...X.s.g.k.N.C.C.C.C.m.z.h.h.s.-.-.#.$.$.E R / G D L = $ + * * + t 0 0 `.",
"`.`.`.`.`.`.`.`.`.`.^.`.`.^.`.g g g q q 8 # - & # * & $.$.$.l.s.k.b.N.M.V.D.n.l.j.v.-.u.:.o.o.o./ ! K G D D # X : 4 $ 4 q y t ).",
"`.`.`.`.`.`.`.`.`.^.`.`.`.`.`.g h g 0 d s 5 @ 4 4   ; o.*...s.v.k.n.N.M.M.C.n.b.x.c.u.i.:.&.$.%.E ! J F P P * % $ O X & 0 8 f /.",
"`.`.`.`.`.`.`.`.`.`.^.`.a g g + o 5 @   : A S A ..o.+.D.Z.N.D.M.M.N.N.M.C.C.N.n.C.N.d.g.h.=.-.-.o.%.O._ [ | Y I H - $ o < u w ~.",
"`.`.`.`.`.`.`.`.`.^.`.`.g g g * + & @ * @ Z C C #.*.$.n.M.C.B.C.C.N.C.C.C.C.C.N.C.M.h.j.h.:.a.s...$.o.[ { } Y U Q % 3 5 i 8 6 `.",
"`.`.`.`.`.`.`.`.`.`.`.`.t g g + : + + 5 2 A Z 1 #.+.%.n.D.Z.n.C.C.C.C.C.C.C.M.C.C.M.g.j.f.:.a.a.o.#.$.[ ] ' R J T . & # 8 p d ).",
"`.`.`.`.`.`.`.`.`.`.`.`.t 8 t * + * * % % ]  .{ d.h.d.n.n.A.N.N.C.C.C.C.C.N.N.C.C.M.h.l.l.:.a.:.a.p.a.%.&.$.[ } [ W / W `.~.`.E.",
"`.`.`.`.`.`.`.`.`.`.`.`.t t t + $ * $ * % ` } } s.s.f.C.C.Z.m.C.C.C.C.C.C.C.C.C.C.V.h.l.l.-.u.-.:.=.;.@.O.$.} { } ! K ( ).`.`.`.",
"`.`.`.`.`.`.`.`.`.`.`.`.t t 0 * * + + * & ` ] { f.g.k.C.C.B.n.S.C.C.C.M.M.N.N.N.C.V.l.x.l.:.u.a.i.u.a.$.&.o.[ { [ W E R `.E.`.~."
};
