/* XPM */
static char *_d6e957b24ba46dbe1f67aff26735857ykEHdT36ABd8aWk8[] = {
/* columns rows colors chars-per-pixel */
"64 64 185 2 ",
"   c #3D2E2B",
".  c #33362F",
"X  c #3B342D",
"o  c #2D3434",
"O  c #353635",
"+  c #3A3533",
"@  c #343A36",
"#  c #3B3935",
"$  c #35363A",
"%  c #39373B",
"&  c #353B3B",
"*  c #3A3B3C",
"=  c #433B34",
"-  c #2E3944",
";  c #373741",
":  c #313A43",
">  c #3A3C42",
",  c #30384D",
"<  c #3A4946",
"1  c #404042",
"2  c #4C4644",
"3  c #434A46",
"4  c #4B4A45",
"5  c #47454E",
"6  c #4A4C4C",
"7  c #524E4F",
"8  c #5B544E",
"9  c #484357",
"0  c #4E5756",
"q  c #4C5858",
"w  c #545454",
"e  c #5A5453",
"r  c #5B5B5B",
"t  c #535762",
"y  c #767676",
"u  c #787772",
"i  c #7B7A76",
"p  c #75747C",
"a  c #7C7C7C",
"s  c #B77344",
"d  c #BC7544",
"f  c #BC794A",
"g  c #827D7C",
"h  c #C17A4B",
"j  c #C87A4A",
"k  c #7A817A",
"l  c #DC844B",
"z  c #D58552",
"x  c #DC8651",
"c  c #D78B57",
"v  c #DB8953",
"b  c #D68A58",
"n  c #DD8B59",
"m  c #E28849",
"M  c #E9894F",
"N  c #F58B4F",
"B  c #E28651",
"V  c #E98756",
"C  c #E48A53",
"Z  c #EC8C54",
"A  c #E48E59",
"S  c #E98D5B",
"D  c #E69255",
"F  c #ED9352",
"G  c #EB915D",
"H  c #FF9A54",
"J  c #F2935D",
"K  c #FC9B5D",
"L  c #F7A25F",
"P  c #DC8B63",
"I  c #CC916F",
"U  c #E08F60",
"Y  c #E88865",
"T  c #E89462",
"R  c #F59C66",
"E  c #FB9D64",
"W  c #F89E6A",
"Q  c #FDA466",
"!  c #F6A268",
"~  c #FCA36C",
"^  c #FBA86D",
"/  c #F5A472",
"(  c #FCA472",
")  c #FEAB74",
"_  c #F2A279",
"`  c #FCA47D",
"'  c #F6AC7F",
"]  c #FCAD7B",
"[  c #F8B372",
"{  c #F7B07C",
"}  c #FCB17D",
"|  c #777D82",
" . c #798286",
".. c #818181",
"X. c #888282",
"o. c #8C8C8C",
"O. c #96928F",
"+. c #8F9393",
"@. c #8D9A94",
"#. c #88979E",
"$. c #969695",
"%. c #9C9594",
"&. c #959B94",
"*. c #9C9992",
"=. c #959699",
"-. c #9A949A",
";. c #979B9B",
":. c #9A9A9A",
">. c #A19795",
",. c #AB9790",
"<. c #A29D97",
"1. c #A09798",
"2. c #AEA39C",
"3. c #A5A89D",
"4. c #A8A89C",
"5. c #9C9BA0",
"6. c #A69EA3",
"7. c #9DA6A3",
"8. c #9EA6AB",
"9. c #9EA4B0",
"0. c #9AB0BB",
"q. c #A6A6A6",
"w. c #A9A5A5",
"e. c #A5A9A5",
"r. c #AAAAA6",
"t. c #A4A6AB",
"y. c #AAA6AA",
"u. c #A4AAAB",
"i. c #A9A9A9",
"p. c #B4A3A2",
"a. c #B2A9A4",
"s. c #B1A4AB",
"d. c #B2ACA9",
"f. c #A9B0A8",
"g. c #A6A2B0",
"h. c #A5AAB1",
"j. c #ADABB0",
"k. c #F5AE82",
"l. c #FBAE80",
"z. c #FCAD89",
"x. c #F6B187",
"c. c #FCB283",
"v. c #F7B28B",
"b. c #FCB48B",
"n. c #FDB98D",
"m. c #FBB694",
"M. c #FDBA95",
"N. c #FBB69B",
"B. c #F6BC9A",
"V. c #FCBC9B",
"C. c #F7BBA2",
"Z. c #FDBCA1",
"A. c #F5C19E",
"S. c #FEC19B",
"D. c #FAC1A1",
"F. c #FEC9A4",
"G. c #F3C3AB",
"H. c #FDC5AB",
"J. c #FDCBAC",
"K. c #F5CDB4",
"L. c #FACDB2",
"P. c #FBCDB3",
"I. c #FECDB1",
"U. c #FFC8B4",
"Y. c #FACDB5",
"T. c #FECFB6",
"R. c #F9CEB8",
"E. c #F7D0B3",
"W. c #FFD0B1",
"Q. c #F5D1BB",
"!. c #FFF8DF",
"~. c #FFF7EC",
"^. c #FFFCED",
"/. c gray97",
"(. c #FFF7F3",
"). c #FFFDF4",
"_. c #FBF6FC",
"`. c #F4FFFF",
"'. c #FBFBF9",
"]. c #FBFBFB",
"[. c #FFFEF9",
"{. c #FAFFFF",
"}. c gray99",
"|. c #FDFDFD",
" X c white",
/* pixels */
" X X X X X X X X X X X X X X X X X X X X X X X X X X X X X X X X X X X X X X X X X X X X X X X X X X X X X X X X X X X X X X X X",
" X X X X X X X X X X X X X X X X X X X X X X X X X X X X X X X X X X X X X X X X X X X X X X X X X X X X X X X X X X X X X X X X",
" X X X X X X X X X X X X X X X X X X X X X X X X X X X X X X X X X X X X X X X X X X X X X X X X X X X X X X X X X X X X X X X X",
" X X X X X X X X X X X X X X X X X X X X X X X X X X X X X X X X X X X X X X X X X X X X X X X X X X X X X X X X X X X X X X X X",
" X X X X X X]. X X X X X X X X X X X X X X X X X X X X X X X X X X X X X X X X X X X X X X X X X X X X X X X X X X X X X X X X X",
" X X X X].]. X X X X X X X X X X X X X X X X X X X X X X X X X X X X X X X X X X X X X X X X X X X X X X X X X X X X X X X X X X",
" X X X X X X X]. X X X X X X X X X X X X X X X X X X X X X X X X X X X X X X X X X X X X X X X X X X X X X X X X X X X X X X X X",
" X X]. X X X X X X X X X X X X X X X X X X X X X X X X X X X X X X X X X X X X X X X X X X X X X X X X X X X X X X X X X X X X X",
"w w w  X X X X X X X X X X X X X X X X X X X X X X X X X X X X X X X X X X X X X X X X X X X X X X X X X X X X X X X X X X X X X",
"w w w  X X X X X X X X X X X X X X X X X X X X X X X X X X X X X X X X X X X X X X X X X X X X X X X X X X X X X X X X X X X X X",
"w w w ]. X X]. X X X X X X X X X X X X X X X X X X X X X X X X X X X X X X X X X X X X X X X X X X X X X X X X X X X X X X X X X",
"a a a w w w  X X X X X X X X X X X X X X X X X X X X X X X X X X X X X X X X X X X X X X X X X X X X X X X X X X X X X X X X X X",
"a a a w w r  X X X X X X X X]. X X X X X X X X X X X X X X X X X X X X X X X X X X X X X X X X X X X X X X X X X X X X X X X X X",
"a a a r w 6  X X X]. X X X X X X X X X X X X X X X X X X X X X X X X X X X X X X X X X X X X X X X X X X X X X X X X X X X X X X",
"i.q.i.y a ..6 r w  X X].]. X]. X X X X X X X X X X X X X X X X X X X X X X X X X X X X X X X X X X X X X X X X X X X X X X X X X",
"q.i.i...a ..w w w  X X X X X]. X X X X X X X X X X X X X X X X X X X X X X X X X X X X X X X X X X X X X X X X X X X X X X X X X",
"i.i.q.a a a w w w  X X]. X X X X X X X X X X X X X X X X X X X X X X X X X X X X X X X X X X X X X X X X X X X X X X X X X X X X",
"q.i.i.i.q.q.a ..a w w w  X X]. X X X X X X X X X X X X X X X X X X X X X X X X X X X X X X X X X X X X X X X X X X X X X X X X X",
"i.q.q.q.i.i.a a a w r 6  X X X X X X X X X X X X X X X X X X X X X X X X X X X X X X X X X X X X X X X X X X X X X X X X X X X X",
"i.i.i.i.q.i...a ..w w w  X X X X X X X X X X X X X X X X X X X X X X X X X X X X X X X X X X X X X X X X X X X X X X X X X X X X",
"q 0 w O * * o * & + O * # & : % + $ X & + 5 4 3  X X X X X X X X X X X X X X X X X X X X X X X X X X X X X X X X X X X X X X X X",
"w e 8 + O # + + @ # # & X . & + & # * O = 4 4 6  X X X X X X X X X X X X X X X X X X X X X X X X X X X X X X X X X X X X X X X X",
"t e 7 : - $ = % : $ ; > + O > X -   , % X 6 5 9  X X X X X X X X X X X X X X X X X X X X X X X X X X X X X X X X X X X X X X X X",
"K H Q F.Q.J.I.Q.J.V.V.V.c.c.l.A D F O & & < 6 2  X X X X X X X X X X X X X X X X X X X X X X X X X X X X X X X X X X X X X X X X",
"~ K R J.K.J.F.R.J.V.B.V.c.c.c.D V Z O 1 X 2 2 2  X X X X X X X X X X X X X X X X X X X X X X X X X X X X X X X X X X X X X X X X",
"R K ! F.L.W.J.Y.J.V.V.V.' ] ] Z S T X o # 6 3 3  X X X X X X X X X X X X X X X X X X X X X X X X X X X X X X X X X X X X X X X X",
"T.J.H.Y.K.L.J.J.R.H.U.U.V.V.V.` ( ~ A U A n.b.B. X X X X X X X X X X X X X X X X X X X X X X X X X X X X X X X X X X X X X X X X",
"J.J.J.J.T.Y.L.J.E.J.I.I.V.M.M._ ^ / N T C b.n.m. X X X X X X X X X X X X X X X X X X X X X X X X X X X X X X X X X X X X X X X X",
"J.L.L.K.Y.L.L.T.K.I.Y.J.V.V.M.) / ) M C G c.M.m. X X{. X X X X{. X X X X X X X X X X X X X X X X X X X X X X X X X X X X X X X X",
"J.J.J.J.I.J.J.J.J.J.L.J.V.V.V.] k.c.R E E G S A [.[. X[.[.[.]. X X X X X X X X X X X X X X X X X X X X X X X X X X X X X X X X X",
"Y.Y.T.L.T.L.I.J.J.J.T.J.V.V.Z.c.c.] E E K B C G  X X X X X X X X X X X X X X X X X X X X X X X X X X X X X X X X X X X X X X X X",
"I.J.J.J.T.G.Y.Y.L.J.T.J.V.N.Z.c.] ) E K E A A S  X{.).`.`.[.).^. X X X X X X X X X X X X X X X X X X X X X X X X X X X X X X X X",
"l.' b.M.S.B.J.J.K.I.Y.L.V.N.V.} x.{ / ~ ~ S Z M n.B.V.(. X X X X X X X X X X X X X X X X X X X X X X X X X X X X X X X X X X X X",
"] c.c.n.M.V.J.I.Y.I.T.J.V.V.V.} x.' / ~ ( A A G n.B.n. X X[.[.[. X X X X X X X X X X X X X X X X X X X X X X X X X X X X X X X X",
"x.x.l.S.V.D.J.L.L.H.H.J.V.V.Z.c.l.] / ( / A A A c.M.c. X X X X X X X X X X X X X X X X X X X X X X X X X X X X X X X X X X X X X",
"d d h ' b.v.M.V.A.V.V.D.M.V.H.n.V.M.l.] ) E K H Z P F  X X X X X X X X X X X X X X X X X X X X X X X X X X X X X X X X X X X X X",
"h f d { c.l.M.V.N.B.B.Z.V.Z.V.M.Z.V.k.c.] Q K K Y A S [.{. X).`. X X X X].]. X X X X X X X X X X X X X X X X X X X X X X X X X X",
"s f h { } ' M.V.G.A.M.S.M.C.Z.C.M.M.b.c.] W R E Z m J ~.[. X(.{. X X X]. X X X X X X X X X X X X X X X X X X X X X X X X X X X X",
"f h h / / / c.x.} ) ] l.Q ( _ @.=.:.q.r.w.w.r.i.h.e.p.0.9.h.>.%.:. X X X/. X X X X X X X X X X X X X X X X X X X X X X X X X X X",
"f d d / ( ( } c.z.c.b.k.L / ~ *.$.&.e.u.e.e.e.e.e.e.a.e.y.h.:.%.:. X X X X X X X X X X X X X X X X X X X X X X X X X X X X X X X",
"d d j / ( ~ ) ] ) [ x.z.( ] ~ %.-.:.y.y.y.y.i.i.u.u.q.d.d.7.=.&.:. X X X X X X]. X X X X X X X X X X X X X X X X X X X X X X X X",
"c b z v l C ~ ) ` Q ^ _ %.#.,.g.t.t.u.u.t.i.y.w.w.d.q.2.w.f.i.e.q.$.:.:. X X X X X X X X X X X X X X X X X X X X X X X X X X X X",
"x n n v x x ~ ( ( ~ ( ( :.;.%.u.e.r.q.q.r.e.r.r.h.y.8.i.y.3.w.e.i.:.:.$. X X X X X X X X X X X X X X X X X X X X X X X X X X X X",
"B x n z v x ( ( ~ / ( ! @.<.-.u.w.i.w.i.y.q.t.i.i.2.u.r.h.4.s.u.q.:.$.$. X X X X X X X X X X X X X X X X X X X X X X X X X X X X",
" X{. X]. X`.B P m a a k t.p.j.e.i.i.i.i.i.i.i.i.q.q.i.i.i.i.i.q.i.q.i.q.$.:.$. X X X X X X X X X X X X X X X X X X X X X X X X X",
"). X X X X{.l x n a i i h.a.8.e.i.i.i.i.i.i.i.i.i.i.i.i.i.i.i.q.q.i.i.q.$.:.$. X]. X X X X X X]. X X X X X X X X X X X X X X X X",
"`.`. X[. X(.A n I p X.g t.r.t.u.i.i.i.i.i.i.i.i.q.q.q.q.q.i.i.i.i.i.q.i.:.$.:. X X X X X X X X X X X X X X X X X X X X X X X X X",
" X[. X~. X`.~.[.!. .a a =.O.-.s.i.i.i.i.i.i.i.i.i.i.i.i.i.i.i.i.i.i.q.i.:.:.o.:.:.$.a a a  X]. X X X X X X X X X X X X X X X X X",
"`.{. X[. X`. X`.).| a g =.:.6.6.q.q.q.q.q.q.q.q.i.i.i.i.q.q.q.q.i.i.q.q.$.:.:.$.$.:.a a a  X X X X X X X X X X X X X X X X X X X",
").). X[._. X_. X X| a a :.+.$.u.i.i.i.i.i.i.i.i.i.i.i.i.q.i.i.i.q.i.q.i.:.$.$.:.$.$.a a .. X]. X X X X X X X X X X X X X X X X X",
" X X X[. X).[.^. Xg a y :.5.:.&.$.$.$.$.$.$.$.$.$.:.:.:.:.:.q.i.i.i.i.q.i.i.q.$.:.$.:.:.$...a a  X X X X X X X X X X X X X X X X",
" X X{.). X).{.{. Xu k  .-.-.1.$.:.:.:.:.:.:.:.:.:.:.:.$.$.:.q.i.i.q.i.i.q.q.i.:.:.$.:.$.:.y a a  X X X X X X X X X X X X X X X X",
" X X X X X X X X Xa a a :.:.:.$.:.:.$.:.$.:.:.:.:.:.:.$.$.:.q.i.i.i.i.q.i.i.q.:.:.:.$.$.$.a a a  X X X X X X X X X X X X X X X].",
" X X X X X X X X Xa a a :.$.$.$.o.o.a a a $.$.:.q.i.i.q.q.q.i.i.q.i.i.q.i.i.i.q.q.q.:.:.:.$.$.$.a a a  X X X X X X X X X X X]. X",
" X X X X X X X X Xa a a $.:.:.o.o.o.a a a :.:.$.q.i.i.i.i.i.i.i.q.i.i.q.q.i.i.i.i.i.$.$.$.:.:.:.a a .. X X X X X]. X X X]. X X X",
" X X X X X X X X Xa a a :.$.:.o.o.o.a a y :.:.:.q.q.q.q.i.i.i.i.q.i.i.q.q.q.i.i.i.i.:.:.:.:.$.$.y a y  X X]. X X X X]. X X]. X X",
" X X X X X X X X X X X Xa ..a a a ..o.o.o.i.q.q.i.i.i.i.i.i.i.i.i.i.i.q.q.i.i.q.i.i.q.q.q.:.:.:.a X.y a a .. X].]. X X X X X X X",
" X X X X X X X X X X]. Xa a a a a a o.o.o.q.i.i.q.q.q.i.i.i.q.q.i.q.q.i.i.i.i.q.q.q.i.i.i.$.$.:.a a a a y a  X X X X X X]. X X X",
" X X X X X X X X X X X Xa a a a a a o.$.o.i.q.q.q.i.i.i.i.i.i.i.i.q.q.i.i.i.i.i.i.i.q.i.q.:.$.:.a a a a ..a  X X X X]. X X X X X",
" X X X X X X X X X X X Xa a a a a a o.o.X.i.q.i.i.i.i.q.q.q.q.i.i.i.i.q.q.q.q.i.q.i.q.i.q.:.$.:.:.:.$.a a a a a a  X X X X X X X",
" X X X X X X X X X X X Xa ..a a a a o.o.o.i.q.i.i.i.i.q.i.q.i.q.i.i.i.i.i.i.i.i.i.q.i.q.i.$.$.:.$.:.:.a a a a a a  X X X]. X X X",
" X X X X X X X X X X X Xa a a a a a o.o.$.q.q.q.q.q.i.q.i.q.i.i.i.i.i.i.i.i.i.i.i.q.i.q.i.$.:.:.$.$.$.a a ..a a a ]. X X X X X X",
" X X X X X X X X X X]. Xa a a a a a $.$.$.:.:.:.i.q.i.q.i.q.i.i.i.i.i.i.i.i.i.i.i.q.i.i.i.:.:.:.:.:.:.:.$.$.a a a a a a ]. X X X",
" X X X X X X X X X X X Xa ..a a a a :.:.:.:.:.$.i.i.i.i.i.q.q.q.i.i.i.i.i.i.i.i.i.i.i.q.i.:.$.$.:.:.$.:.$.$.a a y ..a .. X]. X X"
};
