/* XPM */
static char *_c33a332ff17451ca10f2c052e0515f1c8gYIaSSRJGNqUyz[] = {
/* columns rows colors chars-per-pixel */
"64 64 196 2 ",
"   c #2E3D28",
".  c #3A362B",
"X  c #352F35",
"o  c #2F3A34",
"O  c #343534",
"+  c #393634",
"@  c #343B36",
"#  c #393A35",
"$  c #31353B",
"%  c #3C343C",
"&  c #343B3C",
"*  c #3B3A3A",
"=  c #49392A",
"-  c #443432",
";  c #40393A",
":  c #3E4138",
">  c #4C402A",
",  c #45443E",
"<  c #4B4839",
"1  c #53463C",
"2  c #363544",
"3  c #3C3543",
"4  c #3B3A40",
"5  c #403843",
"6  c #2D4140",
"7  c #3E4543",
"8  c #3D4A4E",
"9  c #3F4A50",
"0  c #454544",
"q  c #4C4744",
"w  c #444A46",
"e  c #4A4A45",
"r  c #44464A",
"t  c #4B454A",
"y  c #454A4B",
"u  c #4A4B4A",
"i  c #51464D",
"p  c #504F4D",
"a  c #465047",
"s  c #434C51",
"d  c #4D4C51",
"f  c #524C53",
"g  c #4B5258",
"h  c #545454",
"j  c #5B565C",
"k  c #595959",
"l  c #67655B",
"z  c #58676A",
"x  c #636562",
"c  c #676B6C",
"v  c #767676",
"b  c #7B7975",
"n  c #7C7B7B",
"m  c #BE7B50",
"M  c #8B7A73",
"N  c #CD7B45",
"B  c #C47A49",
"V  c #CB7B4C",
"C  c #D47A47",
"Z  c #CB7D55",
"A  c #D07C51",
"S  c #E9923B",
"D  c #CF824E",
"F  c #D5824D",
"G  c #C98557",
"H  c #D48252",
"J  c #D78659",
"K  c #E8864E",
"L  c #F68B4D",
"P  c #ED914F",
"I  c #FB934C",
"U  c #E78654",
"Y  c #EA8756",
"T  c #E58B56",
"R  c #EB8D55",
"E  c #E68C59",
"W  c #EC8D5C",
"Q  c #F78A59",
"!  c #E99255",
"~  c #E49158",
"^  c #EB925D",
"/  c #F39656",
"(  c #F89456",
")  c #FE9955",
"_  c #FB955B",
"`  c #FB9B5C",
"'  c #F4A35C",
"]  c #FEA45B",
"[  c #D28F6A",
"{  c #E78E64",
"}  c #E39364",
"|  c #EB9264",
" . c #E99965",
".. c #F79565",
"X. c #F49C64",
"o. c #FB9C63",
"O. c #FC9A6B",
"+. c #FA9D72",
"@. c #FDA265",
"#. c #F5A16D",
"$. c #FCA36D",
"%. c #FAA868",
"&. c #EDA57B",
"*. c #FCA373",
"=. c #FEAC76",
"-. c #F5A478",
";. c #FEA47D",
":. c #F4A978",
">. c #FDAD7C",
",. c #FDB177",
"<. c #F5B37C",
"1. c #FCB17C",
"2. c #7D7E80",
"3. c #747B8B",
"4. c #7E888A",
"5. c #818181",
"6. c #8D8D8D",
"7. c #92898A",
"8. c #92978E",
"9. c #8E9599",
"0. c #969696",
"q. c #9A9592",
"w. c #929B95",
"e. c #9B9A96",
"r. c #93969A",
"t. c #99969A",
"y. c #969A9C",
"u. c #999A9A",
"i. c #A59885",
"p. c #A4999C",
"a. c #A5A59B",
"s. c #9A9BA1",
"d. c #9BA6AF",
"f. c #A6A6A6",
"g. c #ABA6A5",
"h. c #A5A8A4",
"j. c #ADAAA5",
"k. c #A5A6AB",
"l. c #AAA5AB",
"z. c #A6AAAB",
"x. c #A9A9A9",
"c. c #AAB1AE",
"v. c #A4AAB3",
"b. c #BDBDBD",
"n. c #F4AD87",
"m. c #FCAD82",
"M. c #FBAE89",
"N. c #F4B284",
"B. c #FDB283",
"V. c #F5B58B",
"C. c #FDB48B",
"Z. c #FCBB89",
"A. c #EFB99F",
"S. c #F3B595",
"D. c #FCB593",
"F. c #F6BB95",
"G. c #FDBB95",
"H. c #FCB799",
"J. c #F6BC9B",
"K. c #FDBC9B",
"L. c #C2BFB8",
"P. c #F5BBA5",
"I. c #FDBCA2",
"U. c #F8BCB1",
"Y. c #F7C198",
"T. c #FEC29A",
"R. c #C2C1BD",
"E. c #FAC3A3",
"W. c #F9C9A5",
"Q. c #F5C7AA",
"!. c #FFC7AC",
"~. c #F3CDAE",
"^. c #FDCBAD",
"/. c #FDD1AD",
"(. c #F5CDB2",
"). c #FBCCB2",
"_. c #F9CEB9",
"`. c #FCD1B1",
"'. c #F4D1BA",
"]. c #BAC4C5",
"[. c #C3C3C3",
"{. c #DBDBDB",
"}. c gray88",
"|. c #FEF9EA",
" X c #EEFFFB",
".X c #F6F6F6",
"XX c #FEFCF5",
"oX c #FDF7FC",
"OX c #F5FDFD",
"+X c #F8F8F8",
"@X c #F9F9F9",
"#X c #FBFBFB",
"$X c #FEFEFB",
"%X c gray99",
"&X c #FDFDFD",
"*X c white",
/* pixels */
"*X*X*X*X*X*X*X*X*X*X*X*X*X*X*X*X*X*X*X*X*X*X*X*X*X*X*X*X*X*X*X*X*X*X*X*X*X*X*X*X*X*X*X*X*X*X*X*X*X*X*X*X*X*X*X*X*X*X*X*X*X*X*X*X",
"*X*X*X*X*X*X*X*X*X*X*X*X*X*X*X*X*X*X*X*X*X*X*X*X*X*X*X*X*X*X*X*X*X*X*X*X*X*X*X*X*X*X*X*X*X*X*X*X*X*X*X*X*X*X*X*X*X*X*X*X*X*X*X*X",
"*X*X*X*X*X#X*X*X*X*X*X*X*X*X*X*X*X*X*X*X*X*X*X*X*X*X*X*X*X*X*X*X*X*X*X*X*X*X*X*X*X*X*X*X*X*X*X*X*X*X*X*X*X*X*X*X*X*X*X*X*X*X*X*X",
"*X*X*X*X*X*X*X*X*X*X*X*X*X*X*X*X*X*X*X*X*X*X*X*X*X*X*X*X*X*X*X*X*X*X*X*X*X*X*X*X*X*X*X*X*X*X*X*X*X*X*X*X*X*X*X*X*X*X*X*X*X*X*X*X",
"*X*X#X*X*X*X*X*X*X*X*X*X*X*X*X*X*X*X*X*X*X*X*X*X*X*X*X*X*X*X*X*X*X*X*X*X*X*X*X*X*X*X*X*X*X*X*X*X*X*X*X*X*X*X*X*X*X*X*X*X*X*X*X*X",
"*X*X*X*X*X*X#X*X*X*X*X*X*X*X*X*X*X*X*X*X*X*X*X*X*X*X*X*X*X*X*X*X*X*X*X*X*X*X*X*X*X*X*X*X*X*X*X*X*X*X*X*X*X*X*X*X*X*X*X*X*X*X*X*X",
"#X#X*X*X*X*X*X*X*X*X*X*X*X*X*X*X*X*X*X*X*X*X*X*X*X*X*X*X*X*X*X*X*X*X*X*X*X*X*X*X*X*X*X*X*X*X*X*X*X*X*X*X*X*X*X*X*X*X*X*X*X*X*X*X",
"*X*X#X*X*X*X*X#X*X*X*X*X*X*X*X*X*X*X*X*X*X*X*X*X*X*X*X*X*X*X*X*X*X*X*X*X*X*X*X*X*X*X*X*X*X*X*X*X*X*X*X*X*X*X*X*X*X*X*X*X*X*X*X*X",
"x.x.f.*X*X*X*X*X*X*X*X*X*X*X*X*X*X*X*X*X*X*X*X*X*X*X*X*X*X*X*X*X*X*X*X*X*X*X*X*X*X*X*X*X*X*X*X*X*X*X*X*X*X*X*X*X*X*X*X*X*X*X*X*X",
"x.f.x.*X*X*X*X*X*X#X*X*X#X*X*X*X*X*X*X*X*X*X*X*X*X*X*X*X*X*X*X*X*X*X*X*X*X*X*X*X*X*X*X*X*X*X*X*X*X*X*X*X*X*X*X*X*X*X*X*X*X*X*X*X",
"f.x.f.*X*X*X*X*X*X*X*X*X*X*X#X*X*X*X*X*X*X*X*X*X*X*X*X*X*X*X*X*X*X*X*X*X*X*X*X*X*X*X*X*X*X*X*X*X*X*X*X*X*X*X*X*X*X*X*X*X*X*X*X*X",
"*X#X*Xk h u *X*X*X*X*X*X*X*X*X*X*X*X*X*X*X*X*X*X*X*X*X*X*X*X*X*X*X*X*X*X*X*X*X*X*X*X*X*X*X*X*X*X*X*X*X*X*X*X*X*X*X*X*X*X*X*X*X*X",
"*X*X#Xh h h *X*X*X*X*X*X*X*X*X*X*X*X*X*X*X*X*X*X*X*X*X*X*X*X*X*X*X*X*X*X*X*X*X*X*X*X*X*X*X*X*X*X*X*X*X*X*X*X*X*X*X*X*X*X*X*X*X*X",
"#X#X*Xh h h *X*X*X*X.X*X*X*X#X*X*X*X*X*X*X*X*X*X*X*X*X*X*X*X*X*X*X*X*X*X*X*X*X*X*X*X*X*X*X*X*X*X*X*X*X*X*X*X*X*X*X*X*X*X*X*X*X*X",
"*X#X*Xf.x.x.h h k *X*X#X*X*X*X*X*X*X*X*X*X*X*X*X*X*X*X*X*X*X*X*X*X*X*X*X*X*X*X*X*X*X*X*X*X*X*X*X*X*X*X*X*X*X*X*X*X*X*X*X*X*X*X*X",
"#X*X.Xf.x.f.k h h *X*X*X*X*X*X*X*X*X*X*X*X*X*X*X*X*X*X*X*X*X*X*X*X*X*X*X*X*X*X*X*X*X*X*X*X*X*X*X*X*X*X*X*X*X*X*X*X*X*X*X*X*X*X*X",
"#X#X*Xf.x.f.h h h *X*X*X#X*X*X*X*X*X*X*X*X*X*X*X*X*X*X*X*X*X*X*X*X*X*X*X*X*X*X*X*X*X*X*X*X*X*X*X*X*X*X*X*X*X*X*X*X*X*X*X*X*X*X*X",
"#X#X*Xx.f.x.x.f.f.h h h *X*X*X*X*X*X*X*X*X*X#X*X*X*X*X*X*X*X*X*X*X*X*X*X*X*X*X*X*X*X*X*X*X*X*X*X*X*X*X*X*X*X*X*X*X*X*X*X*X*X*X*X",
"*X*X*Xx.f.x.x.x.x.h h h *X#X*X*X*X#X*X*X*X#X*X#X*X*X*X*X*X*X*X*X*X*X*X*X*X*X*X*X*X*X*X*X*X*X*X*X*X*X*X*X*X*X*X*X*X*X*X*X*X*X*X*X",
"*X*X#Xx.f.x.f.x.x.h h h *X*X#X*X*X*X#X*X*X*X#X*X*X*X*X*X*X*X*X*X*X*X*X*X*X*X*X*X*X*X*X*X*X*X*X*X*X*X*X*X*X*X*X*X*X*X*X*X*X*X*X*X",
"#X*X*Xb.b.b.x.x.x.f.x.x.h k h *X*X*X*X*X*X*X*X#X*X*X*X*X*X*X*X*X*X*X*X*X*X*X*X*X*X*X*X*X*X*X*X*X*X*X*X*X*X*X*X*X*X*X*X*X*X*X*X*X",
"#X*X#X[.[.[.x.x.f.x.f.x.k u h *X*X*X*X*X*X*X*X*X*X*X*X*X*X*X*X*X*X*X*X*X*X*X*X*X*X*X*X*X*X*X*X*X*X*X*X*X*X*X*X*X*X*X*X*X*X*X*X*X",
"*X#X.Xb.[.[.f.x.f.x.x.f.h h h *X*X*X#X*X*X*X*X*X*X*X*X*X*X*X*X*X*X*X*X*X*X*X*X*X*X*X*X*X*X*X*X*X*X*X*X*X*X*X*X*X*X*X*X*X*X*X*X*X",
"*X*X*X{.{.{.x.f.x.f.f.f.x.f.x.h h h *X*X*X*X#X*X*X*X*X*X*X*X*X*X*X*X*X*X*X*X*X*X*X*X*X*X*X*X*X*X*X*X*X*X*X*X*X*X*X*X*X*X*X*X*X*X",
"#X*X#X{.}.{.x.f.f.x.x.x.x.f.f.h h h #X*X*X*X*X*X*X*X*X*X*X*X*X*X*X*X*X*X*X*X*X*X*X*X*X*X*X*X*X*X*X*X*X*X*X*X*X*X*X*X*X*X*X*X*X*X",
"#X*X*X{.{.{.x.f.x.f.x.f.x.x.f.h h h *X*X*X*X*X*X*X#X*X*X*X*X#X*X*X*X*X*X*X*X*X*X*X*X*X*X*X*X*X*X*X*X*X*X*X*X*X*X*X*X*X*X*X*X*X*X",
"[.b.[.#X*X*Xb.[.b.f.x.x.x.f.x.n v n h u h *X*X*X*X*X*X*X#X*X*X#X*X*X*X*X*X*X*X*X*X*X*X*X*X*X*X*X*X*X*X*X*X*X*X*X*X*X*X*X*X*X*X*X",
"[.b.b.*X.X#Xb.b.[.f.x.f.x.f.f.n v 5.h h h #X#X*X*X#X*X*X#X*X*X*X*X*X*X*X*X*X*X*X*X*X*X*X*X*X*X*X*X*X*X*X*X*X*X*X*X*X*X*X*X*X*X*X",
"b.b.[.*X#X*X[.b.[.f.x.f.x.x.f.5.5.v h h k *X*X*X*X*X*X*X*X*X*X*X*X*X*X*X*X*X*X*X*X*X*X*X*X*X*X*X*X*X*X*X*X*X*X*X*X*X*X*X*X*X*X*X",
"*X*X*X#X*X*X{.{.{.x.x.x.x.x.x.f.x.x.5.v v h h u *X*X.X#X*X*X*X*X*X*X*X*X*X*X*X*X*X*X*X*X*X*X*X*X*X*X*X*X*X*X*X*X*X*X*X*X*X*X*X*X",
"#X*X*X#X*X*X{.{.{.f.f.x.f.f.x.x.f.x.n v n h h k *X*X*X#X*X*X*X*X*X*X*X*X*X*X*X*X*X*X*X*X*X*X*X*X*X*X*X*X*X*X*X*X*X*X*X*X*X*X*X*X",
"*X*X#X*X.X#X{.{.{.f.x.x.f.x.x.f.x.f.v 5.v h h h *X#X*X*X*X*X*X*X*X*X*X*X*X*X*X*X*X*X*X*X*X*X*X*X*X*X*X*X*X*X*X*X*X*X*X*X*X*X*X*X",
"*X*X*Xb.[.[.*X#X*X[.[.b.f.f.x.x.x.x.x.x.x.v n n h h h *X*X*X*X*X*X*X*X*X*X*X*X*X*X*X*X*X*X*X*X*X*X*X*X*X*X*X*X*X*X*X*X*X*X*X*X*X",
"*X*X*X[.b.[.#X*X#X[.R.L.v.k.f.j.f.f.x.x.x.n b n h h h *X*X$X*X$XOX#XOX*X*X*X*X*X*X*X*X*X*X*X*X*X*X*X*X*X*X*X*X*X*X*X*X*X*X*X*X*X",
"*X*X*Xb.[.b.#X*XXXb.].b.c.j.x.d.z.z.z.f.f.5.2.2.f j f *X*X*XoX*X*X*X#X*X*XOX*X$X*X*X*X*X*X*X*X*X*X*X*X*X*X*X*X*X*X*X*X*X*X*X*X*X",
"#X*X*X*X*X*X6.6.7.x x c , t r u 0 0 e e u 0 0 0 u 7 w w w w u 0 i 0 u u 7 r d *X*X*X*X*X*X*X*X*X*X*X*X*X*X*X*X*X*X*X*X*X*X*X*X*X",
"*X*X*X*X#X*X6.6.9.x l x q r u q u u e u u u u u u u y u 0 0 q p a y q , r f t $X*X*X*X*X*X*X*X*X*X*X*X*X*X*X*X*X*X*X*X*X*X*X*X*X",
"*X*X*X*X*X*X6.6.4.x l z 1 y y e q q t u r y y y w y w 7 w e 0 , > g q , g t t $X*X*X*X*X*X*X*X*X*X*X*X*X*X*X*X*X*X*X*X*X*X*X*X*X",
"u u 0 0 0 0 * O 4 4 * - $.o.` =.N.N.F.K.E.!.^./.K.G.K.M.B.m.{ | [ % + # 8 0 y $X*X*X*X*X*X*X*X*X*X*X*X*X*X*X*X*X*X*X*X*X*X*X*X*X",
"0 u 0 u u u * * - X 2 5 ` o.*.n.B.B.G.G.K.!.^.^.D.T.G.B.B.$.^ K Y % * # 8 e y *X*X*X*X*X*X*X*X*X*X*X*X*X*X*X*X*X*X*X*X*X*X*X*X*X",
"u u u u 0 u # * @ & @ @ ] ` o.,.B.m.G.H.P.)._.(.I.J.G.N.B.1.E R P O & % t 1 7 *X*X*X*X*X*X*X*X*X*X*X*X*X*X*X*X*X*X*X*X*X*X*X*X*X",
"t q w + ; . * o 2 ,.N.S.).!.).^.).).).).).).).).I.K.K.>.1.N.$.*.*.R S ~ r i d *X*X*X*X*X*X*X*X*X*X*X*X*X*X*X*X*X*X*X*X*X*X*X*X*X",
"s u y # + * % % $ 1.>.:.^.^.).(.^.^.^.).).).).).I.K.K.m.1.N.$.*.=.{ ^ { 0 < 0 *X*X*X*X*X*X*X*X*X*X*X*X*X*X*X*X*X*X*X*X*X*X*X*X*X",
", q q ; $ 6 O : = &.B.B.~.'.).^.`.).).).).^.^.^.P.Y.J.M.C.V.$.$.%.K R K d d 9 $X*X*X*X*X*X*X*X*X*X*X*X*X*X*X*X*X*X*X*X*X*X*X*X*X",
"* % 4 $ @ . ;._ X.`.'.!.Q.W./._.Q.).).).).).).^.^.W.^.H.G.G.*.$.%.E } W *XXX#X$X*X*X*X*X*X*X*X*X*X*X*X*X*X*X*X*X*X*X*X*X*X*X*X*X",
"  + * % * . @.) @.Q.~.^.).'.^.E.^.).).).).).).).)./.).I.K.G.*.$.$.Q W Y OXOXOX*X*X*X*X*X*X*X*X*X*X*X*X*X*X*X*X*X*X*X*X*X*X*X*X*X",
"3 3 * X # # _ o.` ).).^.^.!.^.`.W.!.^.^.).).).).).^.).K.K.F.*.#.&.Q R | $XOX$XOX*X*X*X*X*X*X*X*X*X*X*X*X*X*X*X*X*X*X*X*X*X*X*X*X",
"OXOXXX$X*XOXX.}  .E.G.S.K.P.J.N.N.V.F.J.E.^.).).)./.).K.K.K.>.>.=.` ' ` T R R XX*X*X*X*X*X*X*X*X*X*X*X*X*X*X*X*X*X*X*X*X*X*X*X*X",
"*X*X$X*X*XOXL / I J.I.U.G.F.T.>.>.B.C.G.E.!.^.^.).^.).K.K.J.m.B.1.O.` O.R T ! OX*X*X*X*X*X*X*X*X*X*X*X*X*X*X*X*X*X*X*X*X*X*X*X*X",
"$X*XOXOXOX|.} I | Z.J.P.K.G.P.,.B.B.D.K.I.!.^.(.).!.!.E.T.P.m.M.<.o.O.` E E R XX*X*X*X*X*X*X*X*X*X*X*X*X*X*X*X*X*X*X*X*X*X*X*X*X",
"#X*XXX$XOXOX#X$X$X..( _ X.I O.' ` o.=.m.n.G.K.K.I.I.K.K.C.J.,.1.,.$.*.@.~ W U *X#X*X*X*X*X*X*X*X*X*X*X*X*X*X*X*X*X*X*X*X*X*X*X*X",
"OXOX$X$X*XOXOX*X*XL / Q +.] o...` @.,.B.N.K.K.K.F.Y.F.I.D.E.1.m.<.+.;.%.K Q { OX*X#X*X*X*X*X*X*X*X*X*X*X*X*X*X*X*X*X*X*X*X*X*X*X",
"$XXX*X*X*X*XXX|.OX .( P @.( ` ) X.X.>.>.N.G.K.K.I.K.K.P.K.J.1.>.<.*.-.%.! U } XX*X*X#X*X*X*X*X*X*X*X*X*X*X*X*X*X*X*X*X*X*X*X*X*X",
"*X*X*X*X*X*XOXOXOXXX*X|.N H G m C C $.*.=.>.1.<.I.I.A.e.u.u.j.z.l.f.x.f.r.s.q.3.n v *X*X*X*X*X*X*X*X*X*X*X*X*X*X*X*X*X*X*X*X*X*X",
"OXOXOX*X*X*X*X*X*XXXOX*XZ G D V B V *.*.*.=.1.Z.V.K.Y.8.w.q.j.k.f.h.h.f.s.9.q.M 5.v *X*X*X*X*X*X*X*X*X*X*X*X*X*X*X*X*X*X*X*X*X*X",
"*X*X*X*X*X$XXXXX*X*XoX*XG C A V m Z -.;.-.B.>.:.I.I.D.p.t.p.l.v.c.h.x.l.t.y.y.b v n *X*X*X*X*X*X*X*X*X*X*X*X*X*X*X*X*X*X*X*X*X*X",
"*X#X*X*X$X*X*XOXXX X*XOX$X$XXXG F N F F N $.*.*.y.w.i.d.v.j.a.g.f.f.k.c.a.j.k.s.0.u.v v n v n v *X*X*X*X*X*X*X*X*X*X*X*X*X*X*X*X",
"*X*X*X*X*X*X*X*XOX*X*XXXXXOXXXC D V H V F *.#.$.u.0.u.x.x.x.f.f.f.x.x.x.x.x.f.0.u.u.v v v n n v *X*X*X*X#X*X*X#X*X*X*X*X*X*X*X*X",
"*X*X*X*X*X*X*X*X$X*X*X#X$XOX#XG V J A V H #.>.*.u.u.u.f.f.x.x.x.x.x.x.f.f.x.f.u.u.0.n 5.5.v n n *X*X*X*X*X.X*X*X*X*X*X*X*X*X*X*X",
"*X*X*X*X*X*X*X*X$X*X*X*X*XOXOX|.*X#X$X*X$Xq.e.q.x.x.f.x.x.x.x.f.x.f.f.f.f.x.x.f.x.x.0.u.0.n n n n v 5.#X*X*X#X*X*X*X*X*X*X*X*X*X",
"*X*X*X*X*X*X*X*X$X$X*X*XOX*X#XOX#X*X*X*X$Xw.u.w.f.f.f.x.f.f.x.x.x.f.f.x.f.x.x.x.x.f.u.u.u.n n n v v v *X*X*X*X*X*X*X*X*X*X*X*X*X",
"*X*X*X*X*X*X*X*X$X*X*X*X#X$X$XOX*X*X*X*X*Xu.t.t.x.x.x.x.x.x.x.f.x.f.x.x.x.f.x.x.x.x.u.0.0.n n v n 5.n *X*X#X*X*X*X*X*X*X*X*X*X*X",
"*X*X*X*X*X*X*X*X*X*X*X$X*XXXXXOX*X*X*X.X*Xy.y.r.0.0.u.f.f.x.x.x.x.f.x.x.x.f.x.f.x.x.u.u.u.0.u.u.v v v v n n *X*X*X*X*X*X*X*X*X*X",
"*X*X*X*X*X*X*X*X*X*X*X$X*X*X$X*X#X$X$X$X$Xe.8.e.u.u.u.x.x.x.x.x.x.f.x.x.f.x.x.f.x.x.0.0.u.0.u.u.n n 5.n n v *X*X*X*X*X*X*X*X*X*X"
};
