/* XPM */
static char *c2f1d2bdddd247ebd3bab11567f091deHuSatR1xgpabT8u1[] = {
/* columns rows colors chars-per-pixel */
"32 40 256 2 ",
"   c black",
".  c blue",
"X  c green",
"o  c red",
"O  c cyan",
"+  c yellow",
"@  c magenta",
"#  c white",
"$  c #7B7B7B",
"%  c #7B7B7B",
"&  c #7B7B7B",
"*  c #7B7B7B",
"=  c #7B7B7B",
"-  c #7B7B7B",
";  c #7B7B7B",
":  c #7B7B7B",
">  c #7B7B7B",
",  c #7B7B7B",
"<  c #7B7B7B",
"1  c #7B7B7B",
"2  c #7B7B7B",
"3  c #7B7B7B",
"4  c #7B7B7B",
"5  c #7B7B7B",
"6  c #7B7B7B",
"7  c #7B7B7B",
"8  c #7B7B7B",
"9  c #7B7B7B",
"0  c #7B7B7B",
"q  c #7B7B7B",
"w  c #7B7B7B",
"e  c #7B7B7B",
"r  c #7B7B7B",
"t  c #7B7B7B",
"y  c #7B7B7B",
"u  c #7B7B7B",
"i  c #7B7B7B",
"p  c #7B7B7B",
"a  c #7B7B7B",
"s  c #7B7B7B",
"d  c #7B7B7B",
"f  c #7B7B7B",
"g  c #7B7B7B",
"h  c #7B7B7B",
"j  c #7B7B7B",
"k  c #7B7B7B",
"l  c #7B7B7B",
"z  c #7B7B7B",
"x  c #7B7B7B",
"c  c #7B7B7B",
"v  c #7B7B7B",
"b  c #7B7B7B",
"n  c #7B7B7B",
"m  c #7B7B7B",
"M  c #7B7B7B",
"N  c #7B7B7B",
"B  c #7B7B7B",
"V  c #7B7B7B",
"C  c #7B7B7B",
"Z  c #7B7B7B",
"A  c #7B7B7B",
"S  c #7B7B7B",
"D  c #7B7B7B",
"F  c #7B7B7B",
"G  c #7B7B7B",
"H  c #7B7B7B",
"J  c #7B7B7B",
"K  c #7B7B7B",
"L  c #7B7B7B",
"P  c #7B7B7B",
"I  c #7B7B7B",
"U  c #7B7B7B",
"Y  c #7B7B7B",
"T  c #7B7B7B",
"R  c #7B7B7B",
"E  c #7B7B7B",
"W  c #7B7B7B",
"Q  c #7B7B7B",
"!  c #7B7B7B",
"~  c #7B7B7B",
"^  c #7B7B7B",
"/  c #7B7B7B",
"(  c #7B7B7B",
")  c #7B7B7B",
"_  c #7B7B7B",
"`  c #7B7B7B",
"'  c #7B7B7B",
"]  c #7B7B7B",
"[  c #7B7B7B",
"{  c #7B7B7B",
"}  c #7B7B7B",
"|  c #7B7B7B",
" . c #7B7B7B",
".. c #7B7B7B",
"X. c #7B7B7B",
"o. c #7B7B7B",
"O. c #7B7B7B",
"+. c #7B7B7B",
"@. c #7B7B7B",
"#. c #7B7B7B",
"$. c #7B7B7B",
"%. c #7B7B7B",
"&. c #7B7B7B",
"*. c #7B7B7B",
"=. c #7B7B7B",
"-. c #7B7B7B",
";. c #7B7B7B",
":. c #7B7B7B",
">. c #7B7B7B",
",. c #7B7B7B",
"<. c #7B7B7B",
"1. c #7B7B7B",
"2. c #7B7B7B",
"3. c #7B7B7B",
"4. c #7B7B7B",
"5. c #7B7B7B",
"6. c #7B7B7B",
"7. c #7B7B7B",
"8. c #7B7B7B",
"9. c #7B7B7B",
"0. c #7B7B7B",
"q. c #7B7B7B",
"w. c #7B7B7B",
"e. c #7B7B7B",
"r. c #7B7B7B",
"t. c #7B7B7B",
"y. c #7B7B7B",
"u. c #7B7B7B",
"i. c #7B7B7B",
"p. c #7B7B7B",
"a. c #7B7B7B",
"s. c #7B7B7B",
"d. c #7B7B7B",
"f. c #7B7B7B",
"g. c #7B7B7B",
"h. c #7B7B7B",
"j. c #7B7B7B",
"k. c #7B7B7B",
"l. c #7B7B7B",
"z. c #7B7B7B",
"x. c #7B7B7B",
"c. c #7B7B7B",
"v. c #7B7B7B",
"b. c #7B7B7B",
"n. c #7B7B7B",
"m. c #7B7B7B",
"M. c #7B7B7B",
"N. c #7B7B7B",
"B. c #7B7B7B",
"V. c #7B7B7B",
"C. c #7B7B7B",
"Z. c #7B7B7B",
"A. c #7B7B7B",
"S. c #7B7B7B",
"D. c #7B7B7B",
"F. c #7B7B7B",
"G. c #7B7B7B",
"H. c #7B7B7B",
"J. c #7B7B7B",
"K. c #7B7B7B",
"L. c #7B7B7B",
"P. c #7B7B7B",
"I. c #7B7B7B",
"U. c #7B7B7B",
"Y. c #7B7B7B",
"T. c #7B7B7B",
"R. c #7B7B7B",
"E. c #7B7B7B",
"W. c #7B7B7B",
"Q. c #7B7B7B",
"!. c #7B7B7B",
"~. c #7B7B7B",
"^. c #7B7B7B",
"/. c #7B7B7B",
"(. c #7B7B7B",
"). c #7B7B7B",
"_. c #7B7B7B",
"`. c #7B7B7B",
"'. c #7B7B7B",
"]. c #7B7B7B",
"[. c #7B7B7B",
"{. c #7B7B7B",
"}. c #7B7B7B",
"|. c #7B7B7B",
" X c #7B7B7B",
".X c #7B7B7B",
"XX c #7B7B7B",
"oX c #7B7B7B",
"OX c #7B7B7B",
"+X c #7B7B7B",
"@X c #7B7B7B",
"#X c #7B7B7B",
"$X c #7B7B7B",
"%X c #7B7B7B",
"&X c #7B7B7B",
"*X c #7B7B7B",
"=X c #7B7B7B",
"-X c #7B7B7B",
";X c #7B7B7B",
":X c #7B7B7B",
">X c #7B7B7B",
",X c #7B7B7B",
"<X c #7B7B7B",
"1X c #7B7B7B",
"2X c #7B7B7B",
"3X c #BD9483",
"4X c #6A3931",
"5X c #7B4A29",
"6X c #A4A4A4",
"7X c #7B7B7B",
"8X c #AC7B6A",
"9X c #B4837B",
"0X c #202020",
"qX c #5A0000",
"wX c #183129",
"eX c gray32",
"rX c #412010",
"tX c #311800",
"yX c #6A4120",
"uX c #835241",
"iX c #4A2018",
"pX c #414141",
"aX c #392020",
"sX c #9C7352",
"dX c #7B4139",
"fX c #4A2920",
"gX c #623918",
"hX c #6A4139",
"jX c #6A3929",
"kX c gray45",
"lX c #101010",
"zX c #9C6A4A",
"xX c #393939",
"cX c #411800",
"vX c #5A5A5A",
"bX c #7B3118",
"nX c gray29",
"mX c #4A2010",
"MX c #8B5A4A",
"NX c #623120",
"BX c #835A41",
"VX c #A46A62",
"CX c #8B6A4A",
"ZX c #313131",
"AX c #5A3131",
"SX c #94625A",
"DX c #622008",
"FX c #835A31",
"GX c #626262",
"HX c #5A2910",
"JX c #523108",
"KX c #8B8B8B",
"LX c #6A3118",
"PX c #9C734A",
"IX c #B48B6A",
"UX c #7B4A39",
/* pixels */
"xXhXfXfXxXpXxXxXxXfXfXhXfXxXxXpXpXfXxXxXxXfXhXfXfXfXpXpXfXfXfXfX",
"xXnXUXeXnXnXnXpXhXhXnXeXnXnXeXvXvXeXnXnXeXvXvXhXUXvXvXBXUXUXhXaX",
"xXvXBXUXvXvXvXUXeXBXUXvXvXUXBXBXGXvXvXBXBXBXBXvXvXGXBXBXBXBXUXaX",
"xXvXCXaXfXaXfXxXxXxXaXaXZXZXxXxXxXfXfXpXpXfXfXxXaXZXZXZXxXUXhXfX",
"xXvXGXxX0XlXlXtXlXrX0XlXlXtXrXtXtXrXrXlXrXrXlXrXlX0X0X0XfXBXhXZX",
"xXvXkXfX0XaXfXaXaXNXfXaXfXNXgXiXgXmXNXaXNXgXaXfXaXNXaX0XfXvXhX0X",
"xXvXkXpX0XaXaXmXfXfXaXaXaXfXaXfXAXhXAXfXaXgXaXaXfXNXaX0XxXvXeXaX",
"xXvXGXfX0XaXfXaXaXfXaXaXaXhXhXUXBXBXBXUXfXaXaXaXfXNXfX0XxXGXnX0X",
"xXeXBXZX0XfXfXaXaXrXaXAXhXhXuXBXCXCXBXuXUXaXaXaXaXmXfX0XfXvXpX0X",
"xXvXGXZX0XaXfXaXrXaXiXhXUXBXBXSXPXBXBXzXMXhXaX0XaXmXfXaXfXeXpX0X",
"pXvXGXZX0XrXaXaX0XiXAXUXBXCXCX8XVXCXCXsXkXeXxX0XaXfXfXaXpXvXnX0X",
"pXvXGXZXaXmXmXaX0XiXhXUXUXBXCX9X$ CXCXPXkXeXxX0X0XfXfXaXfXvXeXaX",
"fXUXBXZXaXmXmXmXrXiXhXBXPXPXsX3X3XsXsXsXSXBXpX0X0XfXfX0XpXvXeXZX",
"xXUXBX0XfXmXaXmXrXxXnXCXsXsXsXKX6XIXsXVX$ kXxXZX0XfXNXaXxXvXeXaX",
"xXUXBXaXmXmXaXNX0XxXpXBXAXaXhXBXCXUXrXcXNXSXnX0X0XfXmXaXxXvXvXZX",
"fXUXBXaXfXrXaXmXaXAXuXaX    rX5XCXiXtXtXcXyXUX0X0XaXNXrXfXvXvXxX",
"fXUXvX0XmXfXaXmXaXAXhXcXtX  tXBXsXNX  rXmXUXSX0XaXfXNXmXfXvXvXxX",
"fXUXvX0XmXrXmXiXaXAXUXgXHXtXaXAXpXUXlXfXyXCXSX0XaXaXNXaXxXvXvXxX",
"fXeXvX0XmXaXaXrXrXhXCXUXHXjXBX0X  kXMXCXCXsXVX0XmXaXfXaXaXvXvXZX",
"fXnXvX0XaXrXaXaXaXhXVXsXCXCXUX    xXVXsXsXIXkXeXrXaXaXaXfXvXeX0X",
"fXnXUXaXfXmXrXaXaXhXdXsXBXhXUX    0XSXUXBXCXMXpXaX0XfXrXxXvXnX0X",
"fXnXeXxXfXaXmXaXiXAXUXPXzXCXBXxXfXnXkXVXCXUXAXfXaX0XmXmXxXUXnX0X",
"fXnXvXxXrXrXiXmXJXJXaX0XBXhXyXCXBXBXCXzXhXlXlXrXaXrXrXiXaXUXnX0X",
"ZXpXBXZXhXtXyXfXUXiXrXaXlXgXyXUXhXhXCXUX0XxX0XrXrXhXtXyXaXUXnX0X",
"aXpXBXaXAXrXyXmXyXHXtXfXxXUXCXfXxXgXsXBXfXhXaXDXmXAXrXyXaXUXnX0X",
"aXpXvXaXhXrXFXJXmXLXtXAXAXxXAXZXlXxXgXNXpXNXiXDXyXhXrXFXZXvXeX0X",
"ZXpXUXZXyXtXyXgX5XLXrXhXFXAXCXaXBXsXNXBXhXjXiXjXAXUXtXyXZXvXeX0X",
"ZXpXUXZXrXlXmXcXDXcXmXUXBXjXhXhXUXPXhXAX4XdXiXcX0XmXlXtXaXUXnX0X",
"ZXxXUXZXaXmXNXLXiXLXDXAXBXBXUXUXhXUXBXeXUXUXrXDXaXaXmXrXZXUXhXaX",
"fXnXeXxXaXmXNXNXLXiXLXiXaXBXzXCXCXCXSXkXuXNXDXiXiXaXfXmXxXUXxX0X",
"fXnXvXxXfXNXNXfXNXLXHXaX0XAXhXBXSXMXSXeXAXiXDXNXiXaXfXNXaXUXxX0X",
"xXpXUXZXNXNXmXaXyXLXLXaXfXfXcXJXaXtXtXqXaXaXDXfXDXaXfXmXaXBXnX0X",
"fXpXUXaXNXNXfXfXjXNXHXfXfXmXqXJXiXJXaXbXfX0XDXaXmXaXaXmXaXBXnX0X",
"fXpXGXaXNXNXfXfXgXNXLXfXNXmXLXDXiXJXiXDXNX0XDXaXmXaXaXmXZXGXeX0X",
"xXeXUXZXNXAXaXNXNXfXDXNXNXmXNXaXDXiXaXLXmX0XiXaXfXaX0XaXZXGXeX0X",
"xXeXUXZXNXfXaXNXNXaXDXAXNXNXLXDXiXfXiXiXmXaXDXfXNXfXaXaXaXUXnX0X",
"xXeXUXZXaXwXaXxXfXxXNXaXxXAXfXiXiXfXiXAXaXZXiXfXpXhXxXaXZXUXhXaX",
"xXeXUXGXGXBXBXBXUXyX5XeXeXyXuXuXUXUXyXyXvXGXUXvXvXvXUXUXUXGXpXaX",
"nXpXnXeXeXUXUXhXeXhXNXpXpXAXAXhXhXAXnXAXnXnXAXnXnXnXpXpXpXpXxX0X",
"ZX0X0X0X0X0X0X0X0XaXaX0X0XaX0X0XaXaX0XaX0X0XaX0X0X0X0X0X0X0X0X0X"
};
