/* XPM */
static char *_69e820646d34fa1da00af5ed7733dbft4Ru9ip8OBtgA7hS[] = {
/* columns rows colors chars-per-pixel */
"32 32 256 2 ",
"   c black",
".  c blue",
"X  c green",
"o  c red",
"O  c cyan",
"+  c yellow",
"@  c magenta",
"#  c white",
"$  c #7B7B7B",
"%  c #7B7B7B",
"&  c #7B7B7B",
"*  c #7B7B7B",
"=  c #7B7B7B",
"-  c #7B7B7B",
";  c #7B7B7B",
":  c #7B7B7B",
">  c #7B7B7B",
",  c #7B7B7B",
"<  c #7B7B7B",
"1  c #7B7B7B",
"2  c #7B7B7B",
"3  c #7B7B7B",
"4  c #7B7B7B",
"5  c #7B7B7B",
"6  c #7B7B7B",
"7  c #7B7B7B",
"8  c #7B7B7B",
"9  c #7B7B7B",
"0  c #7B7B7B",
"q  c #7B7B7B",
"w  c #7B7B7B",
"e  c #7B7B7B",
"r  c #7B7B7B",
"t  c #7B7B7B",
"y  c #7B7B7B",
"u  c #7B7B7B",
"i  c #7B7B7B",
"p  c #7B7B7B",
"a  c #7B7B7B",
"s  c #7B7B7B",
"d  c #7B7B7B",
"f  c #7B7B7B",
"g  c #7B7B7B",
"h  c #7B7B7B",
"j  c #7B7B7B",
"k  c #7B7B7B",
"l  c #7B7B7B",
"z  c #7B7B7B",
"x  c #7B7B7B",
"c  c #7B7B7B",
"v  c #7B7B7B",
"b  c #7B7B7B",
"n  c #7B7B7B",
"m  c #7B7B7B",
"M  c #7B7B7B",
"N  c #7B7B7B",
"B  c #7B7B7B",
"V  c #7B7B7B",
"C  c #7B7B7B",
"Z  c #7B7B7B",
"A  c #7B7B7B",
"S  c #7B7B7B",
"D  c #7B7B7B",
"F  c #7B7B7B",
"G  c #7B7B7B",
"H  c #7B7B7B",
"J  c #7B7B7B",
"K  c #7B7B7B",
"L  c #7B7B7B",
"P  c #7B7B7B",
"I  c #7B7B7B",
"U  c #7B7B7B",
"Y  c #7B7B7B",
"T  c #7B7B7B",
"R  c #7B7B7B",
"E  c #7B7B7B",
"W  c #7B7B7B",
"Q  c #7B7B7B",
"!  c #7B7B7B",
"~  c #7B7B7B",
"^  c #7B7B7B",
"/  c #7B7B7B",
"(  c #7B7B7B",
")  c #7B7B7B",
"_  c #7B7B7B",
"`  c #7B7B7B",
"'  c #7B7B7B",
"]  c #7B7B7B",
"[  c #7B7B7B",
"{  c #7B7B7B",
"}  c #7B7B7B",
"|  c #7B7B7B",
" . c #7B7B7B",
".. c #7B7B7B",
"X. c #7B7B7B",
"o. c #7B7B7B",
"O. c #7B7B7B",
"+. c #7B7B7B",
"@. c #7B7B7B",
"#. c #7B7B7B",
"$. c #7B7B7B",
"%. c #7B7B7B",
"&. c #7B7B7B",
"*. c #7B7B7B",
"=. c #7B7B7B",
"-. c #7B7B7B",
";. c #7B7B7B",
":. c #7B7B7B",
">. c #7B7B7B",
",. c #7B7B7B",
"<. c #7B7B7B",
"1. c #7B7B7B",
"2. c #7B7B7B",
"3. c #7B7B7B",
"4. c #7B7B7B",
"5. c #7B7B7B",
"6. c #7B7B7B",
"7. c #7B7B7B",
"8. c #7B7B7B",
"9. c #7B7B7B",
"0. c #7B7B7B",
"q. c #7B7B7B",
"w. c #7B7B7B",
"e. c #7B7B7B",
"r. c #7B7B7B",
"t. c #7B7B7B",
"y. c #7B7B7B",
"u. c #7B7B7B",
"i. c #7B7B7B",
"p. c #7B7B7B",
"a. c #7B7B7B",
"s. c #7B7B7B",
"d. c #7B7B7B",
"f. c #7B7B7B",
"g. c #7B7B7B",
"h. c #7B7B7B",
"j. c #7B7B7B",
"k. c #7B7B7B",
"l. c #7B7B7B",
"z. c #7B7B7B",
"x. c #7B7B7B",
"c. c #7B7B7B",
"v. c #7B7B7B",
"b. c #7B7B7B",
"n. c #7B7B7B",
"m. c #7B7B7B",
"M. c #7B7B7B",
"N. c #7B7B7B",
"B. c #7B7B7B",
"V. c #7B7B7B",
"C. c #7B7B7B",
"Z. c #7B7B7B",
"A. c #7B7B7B",
"S. c #7B7B7B",
"D. c #7B7B7B",
"F. c #7B7B7B",
"G. c #7B7B7B",
"H. c #7B7B7B",
"J. c #7B7B7B",
"K. c #7B7B7B",
"L. c #7B7B7B",
"P. c #7B7B7B",
"I. c #7B7B7B",
"U. c #7B7B7B",
"Y. c #7B7B7B",
"T. c #7B7B7B",
"R. c #7B7B7B",
"E. c #7B7B7B",
"W. c #7B7B7B",
"Q. c #7B7B7B",
"!. c #7B7B7B",
"~. c #7B7B7B",
"^. c #7B7B7B",
"/. c #7B7B7B",
"(. c #7B7B7B",
"). c #7B7B7B",
"_. c #7B7B7B",
"`. c #7B7B7B",
"'. c #7B7B7B",
"]. c #7B7B7B",
"[. c #7B7B7B",
"{. c #7B7B7B",
"}. c #7B7B7B",
"|. c #7B7B7B",
" X c #7B7B7B",
".X c #7B7B7B",
"XX c #7B7B7B",
"oX c #7B7B7B",
"OX c #7B7B7B",
"+X c #7B7B7B",
"@X c #7B7B7B",
"#X c #7B7B7B",
"$X c #7B7B7B",
"%X c #7B7B7B",
"&X c #7B7B7B",
"*X c #7B7B7B",
"=X c #7B7B7B",
"-X c #7B7B7B",
";X c #7B7B7B",
":X c #7B7B7B",
">X c #7B7B7B",
",X c #7B7B7B",
"<X c #7B7B7B",
"1X c #7B7B7B",
"2X c #7B7B7B",
"3X c #7B7B7B",
"4X c #7B7B7B",
"5X c #7B7B7B",
"6X c #7B7B7B",
"7X c #7B7B7B",
"8X c #7B7B7B",
"9X c #7B7B7B",
"0X c #7B7B7B",
"qX c #7B7B7B",
"wX c #7B7B7B",
"eX c #7B7B7B",
"rX c #7B7B7B",
"tX c #7B7B7B",
"yX c #7B7B7B",
"uX c #7B4A29",
"iX c #A46A62",
"pX c #7B4A39",
"aX c #6A6A6A",
"sX c #8B6A4A",
"dX c #411800",
"fX c #9C7352",
"gX c #B48B6A",
"hX c #6A4120",
"jX c #4A2010",
"kX c gray58",
"lX c #101010",
"zX c #412010",
"xX c #292931",
"cX c #202020",
"vX c gray32",
"bX c #5A3131",
"nX c #311800",
"mX c #313131",
"MX c #9C734A",
"NX c #393939",
"BX c #41624A",
"VX c #395241",
"CX c #835241",
"ZX c #41414A",
"AX c #181818",
"SX c #4A2920",
"DX c #414141",
"FX c #734A39",
"GX c #626262",
"HX c #392020",
"JX c #7B7B7B",
"KX c #5A5A5A",
"LX c #6A4139",
"PX c #835A31",
"IX c #838383",
"UX c #835A41",
/* pixels */
"cXcXcXcXcXcXcXcXmXmXmXmXcXcXcXcXcXcXcXmXmXmXcXcXcXcXcXcXcXcXmXcX",
"cXmXmXmXmXcXcXmXmXmXcXcXcXcXcXmXmXmXmXcXcXcXcXcXcXcXcXcXmXmXmXcX",
"mXcXmXcXcXmXmXmXDXDXvXDXDXDXmXcXNXDXNXDXDXZXDXDXmXmXmXmXmXcXcXmX",
"cXcXmXmXmXmXmXcXvXaXaXKXKXGXvXKXZXvXZXZXDXvXUXaXvXDXmXcXcXmXmXmX",
"mXmXmXmXcXcXcXcXvXGXFXDXHXlXlXlXlXlXlXlXcXmXDXKXvXDXmXcXcXcXcXmX",
"cXmXmXcXmXmXmXmXKXZXcXlXcXcXlXlXlXlXlXlXlXlXmXZXvXcXcXmXmXmXmXcX",
"mXmXmXmXcXmXcXDXDXcXlXlXcXmXcXDXDXZXvXNXmXlXlXlXZXvXmXmXmXcXcXcX",
"mXmXmXmXmXcXvXKXlXlXlXlXHXLXuXDXZXKXGXKXvXSXlXcXlXDXvXcXcXmXcXcX",
"cXcXmXmXcXvXKXcXlXnXlXHXSXhXpXUXvXGXaXGXKXFXSXcXdXlXNXDXcXcXmXmX",
"cXcXcXcXDXDXcXlXlXlXcXSXLXhXPXUXKXaXaXGXGXpXLXLXlXlXlXDXvXvXcXmX",
"cXmXDXLXFXcXlXcXlXHXHXLXLXLXuXsXGXIXIXIXaXpXpXLXHXcXlXNXvXGXcXcX",
"cXmXvXGXDXcXlXlXnXSXSXLXFXLXpXsXfXgXIXIXGXpXLXLXSXdXlXNXvXvXcXcX",
"mXmXZXKXmXlXcXcXnXlXbXLXpXpXUXsXiXgXkXIXUXUXUXLXSXdXcXlXKXvXcXcX",
"mXcXZXZXcXlXcXcXnXlXSXFXsXsXsXfXfX$ $ IXUXFXLXpXHXzXlXlXKXNXcXcX",
"mXmXmXKXcXlXlXcXnXSXjXLXKXGXCXsXfXfX$ $ sXaXGXKXDXnXlXlXvXNXcXcX",
"mXmXmXKXzXlXlXlXlXSXSXlXlXcXmXUXMXfXUXcXcXcXDXKXZXlXlXlXvXDXmXcX",
"mXcXmXKXcXlXlXlXcXSXlX      lXcXLXFXlX        DXNXcXlXlXZXDXmXmX",
"cXcXmXKXcXlXlXcXSXUXlXlXlXlXlXcXUXKXmXlXlXlXlXlXUXSXlXlXZXmXcXmX",
"mXcXmXZXcXlXlXcXSXsXSXHXlXlXcXSXUX$ aXDXcXlXHXSXsXHXcXlXKXNXmXmX",
"mXcXcXKXcXcXlXcXbXUXUXFXSXSXSXUXnXNX$ $ vXSXFXUXFXbXlXcXZXDXmXmX",
"mXcXcXvXmXcXlXcXzXLXUXUXUXUXLXSX    LXvXsXUXUXUXSXjXlXcXvXKXcXmX",
"mXDXNXVXNXcXcXlXcXcXSXSXjXSXjX  lX  SXLXLXjXSXHXcXlXNXcXaXGXcXcX",
"cXcXDXvXDXcXcXcXlXlXcXmXlXHXHXSXlXSXLXbXFXlXcXcXlXmXNXmXaXKXcXcX",
"cXcXDXKXvXZXcXlXlXlXlXcXcXSXlXSXcXsXLXLXSXcXcXlXcXcXmXKXKXZXcXcX",
"cXcXmXNXDXKXNXcXcXcXlXlXcXmXsXUXcXFXSXsXcXcXlXcXmXNXZXvXcXcXmXcX",
"cXcXcXcXNXDXDXDXNXcXcXlXlXlXHXUXSXMXHXbXlXlXmXmXNXZXDXcXcXmXcXcX",
"cXcXmXcXcXcXcXDXvXDXcXcXcXlXlXlXlXlXlXlXcXmXcXNXvXDXcXcXmXmXmXmX",
"cXcXcXmXcXmXcXcXvXvXZXmXmXmXcXcXcXcXcXxXHXNXDXvXDXcXcXmXcXmXmXcX",
"mXcXcXcXcXmXcXcXDXDXGXGXvXvXKXKXGXGXKXKXZXBXKXaXvXmXmXcXcXmXcXcX",
"cXcXcXcXcXmXmXmXcXZXZXZXDXDXDXDXDXDXDXDXNXKXFXDXDXmXcXcXmXmXcXcX",
"cXcXcXmXcXcXmXmXmXcXDXDXcXcXcXcXmXcXcXcXcXcXcXcXcXcXmXmXmXcXmXcX",
"cX  cXcXmXmXcXmXmXmXmXmXcXmXmXmXcXcXcXcXcXcXcXcXcXcXmXcXmXmXmXcX"
};
