/* XPM */
static char *_ec27a40f3bb474396b7722f71d5e16ftrDAzWqrVqyvzHep[] = {
/* columns rows colors chars-per-pixel */
"64 64 256 2 ",
"   c black",
".  c blue",
"X  c green",
"o  c red",
"O  c cyan",
"+  c yellow",
"@  c magenta",
"#  c white",
"$  c #7B7B7B",
"%  c #7B7B7B",
"&  c #7B7B7B",
"*  c #7B7B7B",
"=  c #7B7B7B",
"-  c #7B7B7B",
";  c #7B7B7B",
":  c #7B7B7B",
">  c #7B7B7B",
",  c #7B7B7B",
"<  c #7B7B7B",
"1  c #7B7B7B",
"2  c #7B7B7B",
"3  c #7B7B7B",
"4  c #7B7B7B",
"5  c #7B7B7B",
"6  c #7B7B7B",
"7  c #7B7B7B",
"8  c #7B7B7B",
"9  c #7B7B7B",
"0  c #7B7B7B",
"q  c #7B7B7B",
"w  c #7B7B7B",
"e  c #7B7B7B",
"r  c #7B7B7B",
"t  c #7B7B7B",
"y  c #7B7B7B",
"u  c #7B7B7B",
"i  c #7B7B7B",
"p  c #7B7B7B",
"a  c #7B7B7B",
"s  c #7B7B7B",
"d  c #7B7B7B",
"f  c #7B7B7B",
"g  c #7B7B7B",
"h  c #7B7B7B",
"j  c #7B7B7B",
"k  c #7B7B7B",
"l  c #7B7B7B",
"z  c #7B7B7B",
"x  c #7B7B7B",
"c  c #7B7B7B",
"v  c #7B7B7B",
"b  c #7B7B7B",
"n  c #7B7B7B",
"m  c #7B7B7B",
"M  c #7B7B7B",
"N  c #7B7B7B",
"B  c #7B7B7B",
"V  c #7B7B7B",
"C  c #7B7B7B",
"Z  c #7B7B7B",
"A  c #7B7B7B",
"S  c #7B7B7B",
"D  c #7B7B7B",
"F  c #7B7B7B",
"G  c #7B7B7B",
"H  c #7B7B7B",
"J  c #7B7B7B",
"K  c #7B7B7B",
"L  c #7B7B7B",
"P  c #7B7B7B",
"I  c #7B7B7B",
"U  c #7B7B7B",
"Y  c #7B7B7B",
"T  c #7B7B7B",
"R  c #7B7B7B",
"E  c #7B7B7B",
"W  c #7B7B7B",
"Q  c #7B7B7B",
"!  c #7B7B7B",
"~  c #7B7B7B",
"^  c #7B7B7B",
"/  c #7B7B7B",
"(  c #7B7B7B",
")  c #7B7B7B",
"_  c #7B7B7B",
"`  c #7B7B7B",
"'  c #7B7B7B",
"]  c #7B7B7B",
"[  c #7B7B7B",
"{  c #7B7B7B",
"}  c #7B7B7B",
"|  c #7B7B7B",
" . c #7B7B7B",
".. c #7B7B7B",
"X. c #7B7B7B",
"o. c #7B7B7B",
"O. c #7B7B7B",
"+. c #7B7B7B",
"@. c #7B7B7B",
"#. c #7B7B7B",
"$. c #7B7B7B",
"%. c #7B7B7B",
"&. c #7B7B7B",
"*. c #7B7B7B",
"=. c #7B7B7B",
"-. c #7B7B7B",
";. c #7B7B7B",
":. c #7B7B7B",
">. c #7B7B7B",
",. c #7B7B7B",
"<. c #7B7B7B",
"1. c #7B7B7B",
"2. c #7B7B7B",
"3. c #7B7B7B",
"4. c #7B7B7B",
"5. c #7B7B7B",
"6. c #7B7B7B",
"7. c #7B7B7B",
"8. c #7B7B7B",
"9. c #7B7B7B",
"0. c #7B7B7B",
"q. c #7B7B7B",
"w. c #7B7B7B",
"e. c #7B7B7B",
"r. c #7B7B7B",
"t. c #7B7B7B",
"y. c #7B7B7B",
"u. c #7B7B7B",
"i. c #7B7B7B",
"p. c #7B7B7B",
"a. c #7B7B7B",
"s. c #7B7B7B",
"d. c #7B7B7B",
"f. c #7B7B7B",
"g. c #7B7B7B",
"h. c #7B7B7B",
"j. c #7B7B7B",
"k. c #7B7B7B",
"l. c #7B7B7B",
"z. c #7B7B7B",
"x. c #7B7B7B",
"c. c #7B7B7B",
"v. c #7B7B7B",
"b. c #7B7B7B",
"n. c #7B7B7B",
"m. c #7B7B7B",
"M. c #7B7B7B",
"N. c #7B7B7B",
"B. c #7B7B7B",
"V. c #7B7B7B",
"C. c #7B7B7B",
"Z. c #7B7B7B",
"A. c #7B7B7B",
"S. c #7B7B7B",
"D. c #7B7B7B",
"F. c #7B7B7B",
"G. c #7B7B7B",
"H. c #7B7B7B",
"J. c #7B7B7B",
"K. c #7B7B7B",
"L. c #7B7B7B",
"P. c #7B7B7B",
"I. c #7B7B7B",
"U. c #7B7B7B",
"Y. c #7B7B7B",
"T. c #7B7B7B",
"R. c #7B7B7B",
"E. c #7B7B7B",
"W. c #7B7B7B",
"Q. c #7B7B7B",
"!. c #7B7B7B",
"~. c #7B7B7B",
"^. c #7B7B7B",
"/. c #7B7B7B",
"(. c #7B7B7B",
"). c #7B7B7B",
"_. c #7B7B7B",
"`. c #7B7B7B",
"'. c #7B7B7B",
"]. c #7B7B7B",
"[. c #7B7B7B",
"{. c #7B7B7B",
"}. c #7B7B7B",
"|. c #7B7B7B",
" X c #7B7B7B",
".X c #7B7B7B",
"XX c #7B7B7B",
"oX c #7B7B7B",
"OX c #7B7B7B",
"+X c #7B7B7B",
"@X c #7B7B7B",
"#X c #7B7B7B",
"$X c #7B7B7B",
"%X c #7B7B7B",
"&X c #7B7B7B",
"*X c #7B7B7B",
"=X c #7B7B7B",
"-X c #7B7B7B",
";X c #7B7B7B",
":X c #7B7B7B",
">X c #7B7B7B",
",X c #7B7B7B",
"<X c #7B7B7B",
"1X c #7B7B7B",
"2X c #7B7B7B",
"3X c #7B7B7B",
"4X c #7B7B7B",
"5X c #7B7B7B",
"6X c #7B7B7B",
"7X c #7B7B7B",
"8X c #7B7B7B",
"9X c #7B7B7B",
"0X c #7B7B7B",
"qX c #7B7B7B",
"wX c #7B7B7B",
"eX c #7B7B7B",
"rX c #7B7B7B",
"tX c #7B7B7B",
"yX c #7B7B7B",
"uX c #7B7B7B",
"iX c #7B7B7B",
"pX c #7B7B7B",
"aX c #7B7B7B",
"sX c #7B7B7B",
"dX c #202020",
"fX c #311800",
"gX c #7B7B8B",
"hX c #838383",
"jX c #412010",
"kX c #522018",
"lX c gray45",
"zX c #737383",
"xX c #101010",
"cX c #393941",
"vX c #392020",
"bX c #4A4A5A",
"nX c #393939",
"mX c #203931",
"MX c gray29",
"NX c #6A6A73",
"BX c #6A6A6A",
"VX c #412020",
"CX c #41414A",
"ZX c #181818",
"AX c #5A5A5A",
"SX c #292931",
"DX c #414141",
"FX c #311818",
"GX c gray32",
"HX c #4A2018",
"JX c #5A3131",
"KX c #5A5A6A",
"LX c #182020",
"PX c #623120",
"IX c #4A2920",
"UX c #83839C",
/* pixels */
"fXvXSXvXvXvXvXvXvXvXjXVXIXIXIXIXIXIXHXvXvXvXvXvXvXvXvXvXvXvXvXvXvXvXvXHXHXHXHXvXvXvXIXIXvXkXkXkXHXHXIXIXvXvXvXvXvXvXvXvXfXIXvXvX",
"fXvXFXvXFXFXFXFXFXFXFXFXFXFXFXFXFXvXvXvXvXvXvXvXFXvXvXFXFXFXvXvXvXFXFXvXvXvXvXvXvXIXIXJXIXvXvXFXvXFXvXvXFXFXFXFXFXvXVXIXIXIXvXvX",
"FXvXFXvXvXvXvXvXvXIXIXvXvXvXvXvXvXvXvXvXvXvXVXVXIXVXVXVXVXVXVXVXVXVXVXVXvXIXIXIXIXIXIXvXFXvXFXFXvXvXvXFXFXFXFXFXFXFXIXvXvXIXvXvX",
"fXIXvXIXfXfXfXfXfXfXfXfXfXfXFXvXvXvXvXvXvXvXvXvXFXFXfXfXfXfXfXfXfXfXfXfXfXfXHXjXjXjXjXjXjXjXjXjXjXjXHXHXHXfXfXfXfXHXHXHXfXIXvXvX",
"fXIXvXvX  dXSXdXdXdXdXdXdXdXSXdXdXdXdXdXdXdXdXdXdXdXdXdXSXSXdX    SXdXSXdXdXdXSXSXSXSXSXdXdXdXdXdXdXdXdXdXdXdXdXdXSXdX  fXIXvXvX",
"fXIXvXvXdX  SXSXSXSXSXSXnXSXSXSXcXSXnXSXSXSXSXnXSXSXSXnXnXSX  SXSX  SXSXSXSXSXSXnXSXSXSXSXSXSXSXSXSXSXSXSXSXSXSXSXSX  dXfXvXvXvX",
"fXIXvXjXdXSX  SXnXnXDXnXnXnXnXnXnXnXnXnXDXDXnXDXDXDXDXDXSX  SXnXnXSX  SXnXnXnXDXnXnXDXnXnXnXnXnXnXnXnXnXnXDXnXnXSX  SXdXfXvXvXjX",
"fXvXvXjXdXSXSX  SXnXnXDXDXDXDXDXMXMXMXGXMXMXDXMXMXCXDXSX  SXDXCXCXDXSX  SXDXCXGXMXMXMXMXMXDXDXDXDXDXDXDXCXnXnXSX  SXSXdXfXvXFXjX",
"fXvXvXIXdXSXnXSX  SXnXnXDXDXMXGXGXGXGXGXbXMXDXDXGXCXSX  SXDXCXbXbXCXDXSX  SXDXCXGXGXGXMXMXDXDXDXDXGXDXDXnXnXSXxXSXnXnXSXfXFXvXHX",
"fXFXvXIXSXSXnXnXSX  SXnXnXDXMXGXGXGXbXbXbXCXbXGXCXSX  SXDXCXGXGXbXbXCXDXSX  SXDXCXGXGXbXCXCXCXCXbXbXbXCXnXSXxXSXnXnXnXdXfXFXvXHX",
"fXFXvXHXSXSXnXnXnXSX  SXnXDXDXbXbXbXbXbXbXCXDXnXSX  SXDXCXGXbXbXbXbXGXCXDXSX  SXDXCXbXbXbXbXKXbXGXGXCXnXSXxXSXnXnXDXnXdXfXvXvXHX",
"HXFXvXHXdXSXDXCXnXcXSX  SXDXCXbXbXbXbXCXbXMXDXSX  SXDXCXGXGXbXbXbXbXGXGXCXDXSX  SXDXCXbXKXKXbXGXKXCXDXSX  SXnXnXDXnXSXdXHXvXvXHX",
"vXFXFXHXdXSXnXDXDXnXnXSX  SXDXCXbXbXGXGXCXDXSX  SXDXCXbXbXKXKXKXKXbXGXbXGXCXDXnX  nXDXKXKXbXGXGXCXCXSX  SXSXDXDXDXnXSXdXHXvXFXHX",
"vXFXvXHXdXSXnXDXDXDXnXnXSX  SXDXCXbXGXCXDXSX  SXDXCXbXKXKXKXbXbXKXKXKXbXGXKXCXDXSX  nXDXKXKXGXCXDXSX  SXDXDXCXCXbXnXSXdXHXvXIXHX",
"vXFXvXvXdXnXDXDXDXDXMXCXDXSX  SXDXCXCXDXSX  SXCXMXKXKXKXKXbXbXbXbXbXbXKXKXbXbXCXDXnX  nXDXbXMXDXSX  SXDXCXbXCXCXCXnXSXdXHXvXIXHX",
"vXFXFXvXdXSXDXCXDXbXbXGXCXDXSX  SXDXnXSX  SXCXMXKXKXKXKXKXbXKXKXbXKXKXKXKXKXKXKXCXDXnX  SXnXCXnXxXSXDXCXGXbXbXCXDXnXSXdXHXvXVXHX",
"vXvXvXHXdXSXnXCXbXGXGXGXGXCXDXSX  SXSXxXSXCXMXKXBXKXKXKXKXbXKXbXbXbXbXKXKXbXKXKXbXCXDXSX  nXSXxXnXCXCXGXGXGXCXMXDXnXSXdXHXvXvXHX",
"vXvXvXHXdXSXnXMXbXGXGXGXGXbXCXnXSX  xXSXDXGXbXBXBXBXBXBXNXBXNXbXKXKXbXKXKXKXKXKXbXbXCXCXSX    nXCXCXbXbXGXbXGXMXMXnXSXdXHXvXvXHX",
"HXFXFXHXdXSXnXMXbXGXGXGXbXbXMXnXSXxX  DXCXMXBXBXNXBXNXNXNXNXBXNXNXKXbXBXBXBXBXKXbXKXCXnXnX    SXcXMXbXbXbXbXGXGXMXnXSXdXHXFXvXHX",
"HXFXvXHXdXSXnXbXGXGXbXGXbXMXCXcXdXDXcXdXcXCXCXNXKXNXNXNXNXNXlXNXNXBXBXNXBXBXBXBXNXMXCXcX  SXSXxXnXCXCXKXbXbXGXGXGXnXSXdXHXFXVXHX",
"jXvXVXHXdXSXDXbXGXGXGXbXMXCXcXdXcXnXDXDXdXcXCXGXNXBXNXNXNXNXBXBXBXKXNXNXBXBXBXGXMXDXnX  nXCXCXnXxXSXcXCXbXbXGXGXGXCXSXdXjXFXvXHX",
"jXSXIXHXdXSXDXGXGXGXGXCXDXnXdXnXnXKXGXCXcXdXcXDXGXGXGXGXGXGXGXGXGXGXGXGXGXGXCXGXCXnX  SXCXMXMXCXSXxXSXDXMXKXbXGXbXnXSXdXjXFXvXHX",
"fXFXvXHXdXSXDXGXbXbXCXDXSXdXnXnXbXBXBXGXMXDXdXDXDXMXCXMXMXMXMXMXDXDXDXDXDXDXMXMXnX  nXCXGXKXKXMXCXSXxXnXDXMXGXbXMXnXSXdXfXFXVXHX",
"fXvXFXHXdXcXDXGXbXCXDXSXdXcXDXGXbXKXBXBXGXMXDXdXnXcXcXnXcXnXcXcXcXcXcXnXnXnXnXSXdXnXDXKXBXBXKXKXMXCXnXxXSXDXCXbXMXnXSXdXfXFXFXHX",
"fXvXFXHXdXSXDXGXCXDXSXdXcXDXbXbXKXKXBXBXBXMXMXnXdXdX  dXdX        dXdXdXdXdXdXdXcXGXGXNXNXBXBXKXKXMXDXSXdXnXDXCXMXnXSXdXfXFXFXHX",
"fXvXFXHXdXnXCXCXnXSXdXcXDXbXbXbXbXKXKXBXNXGXbXcXdXKXKXKXKXKXKXKXKXKXKXbXKXKXKXdXcXMXGXNXNXBXBXBXKXKXMXDXSXdXSXDXDXDXSXSXfXFXFXHX",
"fXvXvXHXdXnXnXcXSXdXnXDXMXKXbXbXbXKXBXBXBXGXbXcXdXKXzXzXgXgXgXgXgXzXBXlXlXlXAXdXnXMXGXBXBXBXBXBXKXKXKXCXnXSXLXSXnXDXSXSXfXFXvXHX",
"fXFXvXHXdXSXnXSXdXnXDXCXbXbXbXbXKXNXBXBXBXGXbXcX  KXgXgXgXgXgXUXgXgXzXzXzXgXBXdXnXMXGXBXBXBXBXBXBXKXKXbXCXDXSXdXSXnXcXdXfXFXVXHX",
"fXFXvXHXdXSXSXdXnXDXMXbXGXbXbXKXKXNXNXBXNXGXbXcX  NXgXgXgXUXUXUXUXgXgXgXgXgXBXdXcXMXGXBXKXBXBXBXBXKXKXbXbXCXDXSXdXSXSXSXfXFXVXHX",
"fXFXFXHXdXSXdXSXnXCXGXGXGXbXbXKXKXNXNXNXNXGXMXDX  NXgXgXUXUXUXUXUXUXgXgXgXgXBXdXcXMXGXNXKXBXBXKXbXbXbXbXbXbXCXDXSXdXSXSXfXFXvXHX",
"fXFXFXHXSX  SXcXDXbXGXbXbXKXbXKXKXNXNXNXNXGXCXnX  NXgXUXUXUXUXUXUXUXUXgXgXgXBX  cXMXGXBXBXBXBXKXKXbXbXbXbXbXbXCXDXSXdXSXfXvXvXHX",
"fXFXvXHX  SXnXDXbXbXMXGXbXKXKXKXBXBXBXBXBXGXCXDX  NXgXUXUXUXUXUXUXUXUXUXgXgXNX  cXGXGXNXNXBXBXBXKXKXbXbXbXbXbXGXCXnXSXdXfXvXIXHX",
"fXFXvXHX  SXnXDXbXCXMXGXbXBXBXKXBXBXNXBXBXGXCXDX  NXgXUXUXUXUXUXhXUXUXUX$ gXNX  cXbXGXKXNXNXBXBXBXKXKXbXbXKXbXGXCXnXSX  fXvXIXHX",
"fXIXFXHXdX  SXDXDXCXCXbXKXBXKXBXBXBXNXBXNXGXCXcX  NXgXUXUXUXUXUXUXhXUXUXgXgXNX  cXGXGXBXBXNXBXBXKXKXKXbXbXbXbXCXDXSXxXdXfXIXVXHX",
"HXIXvXHXdXSXxXSXDXCXbXbXKXBXBXBXNXNXBXBXNXGXMXDX  NXgXUXUXUXUXUXUXUXUXUXUXgXNX  cXMXGXBXBXBXBXBXKXbXbXbXbXbXCXDXSX  SXdXHXIXvXHX",
"jXIXvXHXdXSXSXxXSXCXCXbXKXBXBXBXNXNXNXNXNXGXbXDX  NXzXUXUXUXUXUXUXUXgXUXUXgXBXdXDXbXGXBXBXBXBXBXKXbXbXbXbXCXnXSX  SXSXdXjXIXvXHX",
"jXIXvXkXdXSXcXSXxXSXcXDXKXKXKXBXBXNXNXNXNXGXbXcX  KXgXgXUXUXUXUXUXgXgXgXgXzXNXdXcXMXGXBXBXBXBXBXKXKXKXbXCXDXSXxXSXnXSXdXjXIXvXkX",
"vXvXIXkXdXSXnXnXSXxXSXDXMXKXKXKXBXBXBXNXNXGXMXnX  bXgXgXgXgXgXgXzXgXgXgXzXBXNXdXnXMXGXBXKXKXBXBXKXKXbXCXDXSXxXSXcXnXSXdXjXIXvXkX",
"vXIXvXIXdXSXDXnXnXSXxXnXDXMXKXKXKXKXBXBXBXGXDXnX  CXNXNXNXNXNXNXNXBXBXBXBXKXKXdXcXMXGXBXKXKXBXBXKXKXMXDXnXdXSXDXDXnXSXdXjXIXvXPX",
"vXIXIXIXdXSXDXDXDXnXSXxXnXDXMXKXKXKXKXKXKXCXMXcXnXnXmXmXLXLX            dXdXdX  cXMXCXKXKXKXNXKXKXMXCXSXdXSXDXCXCXDXSXdXjXIXIXPX",
"vXvXvXvXdXSXDXMXMXDXcXSXxXSXCXMXKXKXKXKXMXMXcXmXcXcXcXDXcXcXcXcXcXcXnXcXnXnXDXDX  MXMXGXBXBXKXKXMXCXnXdXSXDXCXbXGXDXSXdXjXvXvXkX",
"jXvXFXkXdXSXDXMXMXGXCXDXnXxXnXnXMXKXKXMXMXcXLXcXnXMXMXMXMXMXMXMXMXMXbXMXGXbXDXnXnXxXMXMXGXBXKXMXCXnXdXcXDXCXbXGXMXnXSXdXjXVXFXkX",
"jXvXFXkXdXSXDXDXMXGXbXDXDXnXxXSXCXMXMXCXcX  cXMXGXGXGXGXGXGXGXGXGXGXGXGXGXGXGXCXMXnXxXMXMXGXMXCXSXdXSXDXCXbXbXMXMXnXSXdXjXVXFXkX",
"vXvXFXkXdXSXnXDXCXGXGXCXDXcXSXxXSXDXDXcXLXcXMXGXBXBXBXBXBXBXBXBXBXBXBXBXBXBXBXBXGXMXnXxXMXDXDXnXdXSXDXCXbXbXGXMXMXnXSXdXjXvXFXkX",
"vXIXvXIXdXSXnXCXMXGXGXCXCXCXDXnXxXSXnXLXcXDXMXBXBXKXKXKXKXBXBXBXBXBXBXBXKXKXKXBXBXMXDXnXdXDXnXdXSXDXCXbXbXbXMXMXDXnXSXdXjXIXvXHX",
"vXFXvXHXdXSXnXDXCXGXGXbXGXbXDXnXSX  xXSXDXbXMXBXBXBXKXKXKXKXKXKXKXKXKXKXKXKXKXKXKXKXMXnXnXxXxXSXnXCXbXbXbXbXbXGXDXnXSXdXjXvXvXHX",
"HXvXvXIXdXSXnXDXDXGXbXbXbXMXCXnXSXxX  SXDXMXKXKXBXKXKXKXKXKXKXKXKXKXKXKXKXKXKXKXKXKXMXDXSXxX  SXnXCXbXbXbXbXbXCXCXnXSXdXHXvXvXIX",
"HXvXvXIXdXSXnXDXCXCXbXbXbXCXnXSXLXSXSX  nXDXbXbXKXKXKXKXKXbXbXbXKXbXbXbXKXKXKXKXKXMXCXcXdXnXnXxXSXDXCXbXbXGXCXCXDXnXSXdXHXvXvXIX",
"HXvXFXvXdXSXDXDXCXCXMXbXCXnXSXLXSXnXnXSX  nXDXbXKXKXKXKXKXbXbXbXKXKXKXbXKXKXKXbXCXCXnXdXcXDXDXnX  nXnXCXbXbXCXDXDXnXSXdXHXvXvXvX",
"fXFXvXvXdXSXnXCXDXDXDXnXnXSXLXSXnXDXCXDXnXxXSXDXbXKXKXKXKXKXKXKXKXKXKXbXbXKXKXCXDXnXdXSXDXCXbXDXSX  SXnXCXCXCXDXDXDXSXdXfXIXVXvX",
"fXFXvXvXdXSXnXDXDXDXnXSXdXLXSXnXnXMXCXbXcXSXxXSXDXbXbXbXbXbXbXbXKXbXbXbXbXKXDXnXnXxXnXDXCXbXGXbXCXSX  SXcXCXCXCXCXnXSXdXfXIXVXvX",
"fXFXvXvXdXSXnXDXDXnXSXdXLXSXnXnXDXDXCXbXbXnXnXxXnXDXGXbXbXbXGXKXbXGXKXGXGXCXDXnXxXSXDXCXbXbXGXbXGXCXSX  SXnXDXCXCXnXSXdXfXIXVXvX",
"FXFXVXvXdXSXnXCXnXSXdXxXSXnXnXDXDXCXGXCXMXDXnXSXxXnXDXMXbXbXGXbXGXbXbXbXDXnXnX  SXDXCXbXGXGXbXMXbXMXnXSXxXSXnXDXCXnXSXdXfXIXIXvX",
"HXvXIXvXdXSXDXnXSXSXxXSXnXnXDXDXDXMXbXGXDXDXGXnXSXxXnXDXGXGXGXbXbXbXbXCXDXnX  SXnXCXGXGXGXbXbXGXGXbXCXDXSXxXSXcXDXnXSXdXHXVXIXvX",
"HXIXVXvXdXSXnXSXSXxXSXnXCXCXDXDXDXDXbXbXMXMXDXGXDXSXxXSXnXGXGXbXGXbXCXDXSXxXSXnXCXbXGXbXbXbXGXMXMXMXMXDXnXSX  SXSXnXSXdXHXIXvXvX",
"HXvXvXvXdXSXSXSXxXSXnXDXDXCXDXDXDXDXMXMXMXMXGXbXbXnXnXxXSXDXGXGXGXCXDXSXxXSXnXCXGXMXMXGXCXbXGXGXMXMXMXDXnXnXSX  SXnXSXdXHXIXFXvX",
"fXvXIXFXdXSXSXxXSXnXDXDXDXDXDXDXDXDXDXDXDXDXMXGXbXCXnXSXxXSXnXCXCXnXSXxXSXnXDXMXMXDXDXMXMXDXMXMXDXDXDXDXDXnXnXSX  SXSXSXfXIXIXvX",
"fXIXvXHXdXSXxXSXnXnXnXnXnXnXnXnXnXnXnXnXnXnXnXDXnXDXCXDXSXxXSXnXnXSXxXSXnXnXnXDXnXnXDXnXnXDXnXnXnXnXnXnXnXnXnXnXSXxXSXdXfXIXvXHX",
"fXkXvXHXdXxXSXSXSXSXSXSXSXSXSXSXSXSXSXnXnXSXSXSXSXSXSXSXSXSXxXSXSX  SXSXSXSXSXSXSXSXSXSXSXSXSXSXSXSXSXSXSXSXSXSXSXSXdXdXfXkXvXHX",
"vXHXjXvXxXdXdXdXdXdXdXdXdXSXdXdXdXdXdXdXdXdXdXSXdXdXdXdXdXdXdX    dXdXdXdXdXdXdXdXdXdXdXdXdXdXdXdXdXdXdXdXdXdXdXdXdXdX  vXHXfXHX",
"vXvXvXvXvXvXvXvXvXvXjXjXHXHXvXvXvXvXvXvXvXvXvXvXvXvXvXvXvXHXHXHXHXHXHXHXHXHXHXvXvXvXvXvXvXvXvXvXvXvXIXIXvXvXvXvXvXvXvXvXvXHXHXHX",
"vXfXIXIXvXvXvXFXFXFXFXFXvXvXvXvXvXIXIXvXvXvXvXvXvXvXvXFXFXFXvXvXvXFXFXvXvXvXvXvXvXvXvXIXvXFXFXFXvXvXvXvXvXvXvXvXvXvXVXIXIXkXvXfX",
"jXHXHXHXIXIXIXIXIXIXIXvXvXvXVXvXvXvXvXVXVXVXFXFXvXFXFXFXFXFXFXvXvXvXFXFXFXvXvXvXvXIXIXvXFXvXvXvXIXvXvXvXvXvXvXvXvXvXIXvXvXvXkXHX",
"fXfXfXfXfXfXfXfXfXfXfXfXfXfXfXHXHXHXHXvXvXvXvXvXvXvXjXjXjXjXjXvXvXvXvXvXvXjXvXvXvXjXjXjXjXjXjXjXjXjXHXHXvXjXjXfXfXHXHXHXfXfXfXvX"
};
